    <svg width="640" height="480" xmlns="http://www.w3.org/2000/svg" xmlns:svg="http://www.w3.org/2000/svg" xmlns:xlink="http://www.w3.org/1999/xlink">
        <!-- Created with SVG-edit - http://svg-edit.googlecode.com/ -->
        <defs>
         <symbol xmlns:xlink="http://www.w3.org/1999/xlink" xmlns="http://www.w3.org/2000/svg" viewBox="0 0 400 299.6138996138996" height="224.710425" width="300" id="svg_12" class="size">
          <g id="svg_2">
           <path fill-rule="evenodd" fill="#603d36" d="m179.476,0.324c0,1.746 -2.43199,5.551 -6.10899,9.561c-1.13501,1.237 -2.44501,2.841 -2.91,3.563c-0.976,1.517 -2.75301,3.218 -5.342,5.113c-1,0.732 -1.819,1.453 -1.819,1.6c0,0.148 -0.25801,0.597 -0.57401,0.998c-0.911,1.158 -1.386,4.625 -0.791,5.775c0.461,0.892 0.694,1.005 2.78101,1.352c2.03799,0.339 4.27699,2.441 4.27699,4.017c0,0.315 -0.467,1.983 -1.039,3.708c-0.771,2.331 -0.991,3.423 -0.856,4.254c0.35901,2.217 -0.64499,4.468 -2.858,6.409c-3.67599,3.223 -4.20599,4.004 -4.82399,7.109c-0.701,3.519 -2.127,7.989 -3.283,10.289c-2.87599,5.72 -3.534,16.794 -1.507,25.366c0.46701,1.978 1.132,5.281 1.47801,7.341c0.68399,4.079 1.64899,6.485 3.04399,7.591c3.827,3.033 5.729,3.02 7.18001,-0.05c0.364,-0.769 0.79399,-1.57 0.95599,-1.779c0.162,-0.21 0.925,-2.3 1.696,-4.645c0.772,-2.345 1.76401,-4.80801 2.205,-5.47501c0.44099,-0.666 1.258,-2.554 1.814,-4.195c0.55701,-1.64 1.224,-3.387 1.48401,-3.881c1.04199,-1.986 2.3,-5.045 2.3,-5.597c0,-0.322 0.142,-0.85 0.31499,-1.173c0.173,-0.323 0.31401,-1.83099 0.315,-3.351c0,-1.52 0.12201,-3.168 0.27,-3.662c0.14799,-0.495 0.334,-1.506 0.412,-2.24699c0.75099,-7.067 6.967,-17.345 12.134,-20.062c0.39099,-0.206 1.304,-0.827 2.02899,-1.38c0.72501,-0.553 1.82001,-1.096 2.43401,-1.207c0.61499,-0.111 1.252,-0.303 1.41699,-0.427c0.427,-0.321 4.172,-1.398 6.29201,-1.809c0.989,-0.192 2.742,-0.591 3.895,-0.887c5.612,-1.442 6.97099,-1.768 7.93999,-1.906c0.57701,-0.083 2.33,-0.426 3.895,-0.763c4.592,-0.99 10.368,-0.777 19.476,0.717c8.76801,1.438 9.66701,1.393 17.528,-0.873c1.48302,-0.428 4.18001,-1.052 5.993,-1.389c12.60901,-2.338 15.832,-2.663 26.66602,-2.686c3.79099,-0.007 7.90298,-0.149 9.13898,-0.314c6.76001,-0.901 9.92603,-0.711 16.77902,1.006c5.10999,1.28 9.03998,5.568 11.79199,12.865c1.37399,3.642 4.922,10.611 6.42801,12.626c0.83701,1.119 1.81198,2.666 2.16599,3.438c1.42801,3.106 1.664,3.527 2.34601,4.193c0.38998,0.381 0.89099,0.622 1.11398,0.537c0.22202,-0.08501 0.49701,-0.006 0.60901,0.17699c0.51901,0.83801 1.013,-0.847 1.013,-3.45c0,-2.805 0.83301,-5.899 2.061,-7.66c1.207,-1.729 2.85699,-6.142 4.10199,-10.971c2.12201,-8.231 1.88901,-9.309 -3.14798,-14.571l-3.26102,-3.407l-0.19299,-2.846c-0.17999,-2.655 -0.33701,-3.344 -1.02399,-4.494c-0.147,-0.248 -0.62201,-1.197 -1.05402,-2.109c-0.716,-1.512 -1.672,-2.685 -2.186,-2.685c-0.11099,0 -0.48099,-0.243 -0.82098,-0.538c-0.689,-0.6 -1.90802,-1.033 -4.36401,-1.553c-4.237,-0.898 -5.677,-1.492 -6.41199,-2.649c-0.38501,-0.607 -0.98801,-1.36 -1.33902,-1.674c-0.35098,-0.314 -0.638,-0.87 -0.638,-1.237c0,-0.366 -0.211,-0.84 -0.46799,-1.054c-0.87701,-0.727 -2.57001,-3.552 -3.621,-6.041c-0.57599,-1.366 -1.12,-2.651 -1.20801,-2.857c-0.21698,-0.506 -136.12599,-0.556 -136.12599,-0.051m25.31801,80.313c-0.82401,0.149 -2.57701,0.529 -3.895,0.844c-1.31801,0.31499 -3.052,0.723 -3.85201,0.907c-2.27299,0.521 -5.3,2.212 -6.811,3.804c-3.185,3.356 -3.368,4.19 -1.38599,6.288c1.269,1.34299 1.922,1.62299 4.85799,2.078c0.494,0.077 1.57301,0.267 2.397,0.421c0.82401,0.15501 3.013,0.439 4.86501,0.631c2.10699,0.219 3.494,0.503 3.707,0.759c0.187,0.226 0.644,0.41 1.01599,0.41c1.50101,0 1.72401,1.556 0.3,2.097c-0.42,0.16 -1.536,0.797 -2.47899,1.417c-0.944,0.619 -1.91801,1.229 -2.166,1.354c-0.24701,0.126 -1.123,0.63 -1.94701,1.12c-0.82401,0.491 -2.117,1.223 -2.87401,1.627c-1.29999,0.696 -2.728,2.067 -3.70699,3.562c-1.01601,1.55 1.00299,4.596 3.62999,5.477c0.799,0.268 1.66501,0.675 1.92601,0.905c0.25999,0.23 0.86699,0.424 1.34799,0.432c0.481,0.007 1.41501,0.219 2.07401,0.471c0.659,0.251 1.73799,0.60201 2.397,0.778c0.659,0.177 1.44299,0.533 1.743,0.792c2.312,2.00201 16.08,-0.224 17.672,-2.85699c0.164,-0.27 0.933,-0.396 2.418,-0.396l2.179,0l2.00099,-2.085c1.28101,-1.333 2.00201,-2.332 2.00201,-2.771c0,-1.534 2.94299,-2.955 3.59499,-1.736c0.192,0.35799 0.62801,0.6 1.08301,0.6c0.992,0 2.513,1.516 2.513,2.506c0,1.153 0.51199,1.222 1.528,0.206l0.923,-0.923l0.04799,-3.966c0.04901,-4.117 -0.683,-7.725 -1.74899,-8.609c-0.22701,-0.188 -0.49901,-0.736 -0.604,-1.217c-0.106,-0.481 -0.312,-0.94801 -0.45799,-1.039c-0.147,-0.09 -0.76401,-1.111 -1.37201,-2.267c-2.17,-4.131 -8.85399,-9.83801 -12.698,-10.844c-4.032,-1.054 -4.658,-1.113 -11.61499,-1.08c-3.912,0.019 -7.78601,0.155 -8.61,0.304m75.19901,27.463c-1.29901,1.103 -1.884,2.259 -1.548,3.061c1.241,2.96899 1.43698,3.254 2.87601,4.17699c3.46399,2.223 8.71597,1.182 8.71597,-1.727c0,-2.937 -7.94299,-7.295 -10.04398,-5.511m-47.561,35.876c-4.839,1.77701 -8.57401,6.981 -6.76901,9.433c1.23601,1.679 5.375,2.487 7.806,1.524c0.37901,-0.14999 1.70001,-0.431 2.93501,-0.625c4.55499,-0.715 5.69299,-1.74699 5.69299,-5.161c0,-3.68901 -5.576,-6.672 -9.66499,-5.17101m-8.007,32.211c-1.23201,0.65401 -2.883,1.40201 -3.66701,1.662c-0.784,0.261 -1.496,0.588 -1.582,0.72701c-0.086,0.14 -1.02299,0.54199 -2.08299,0.89499c-2.82201,0.93901 -5.392,2.70001 -6.173,4.231c-2.173,4.259 6.064,10.59801 10.867,8.362c0.70599,-0.32899 4.38499,-1.76999 8.17599,-3.20399l6.89101,-2.606l4.345,-0.01801c4.83899,-0.021 5.37399,0.13301 7.34799,2.106c2.405,2.40601 6.166,3.23601 9.41602,2.07901c6.54498,-2.33 0.60699,-8.76001 -9.57301,-10.36601c-3.95,-0.62299 -8.118,-1.737 -15.211,-4.06499c-4.269,-1.40001 -5.81,-1.36601 -8.754,0.19699m-0.605,60.21701c-0.22601,0.42299 -0.62701,0.59999 -1.35901,0.59999c-0.838,0 -1.03799,0.11501 -1.03799,0.599c0,0.526 -0.2,0.599 -1.63701,0.599c-1.33099,0 -1.698,0.112 -1.95799,0.599c-0.209,0.39 -0.62801,0.60001 -1.19901,0.60001c-0.571,0 -0.98999,0.209 -1.198,0.599c-0.192,0.35899 -0.62801,0.599 -1.08501,0.599c-0.56099,0 -1.40099,0.65201 -3.166,2.45399l-2.40199,2.455l-0.508,-0.674c-0.442,-0.586 -0.73401,-0.661 -2.269,-0.58099l-1.76201,0.092l1.062,1.123c1.022,1.082 1.13701,1.12399 3.07701,1.12399c1.74399,0 2.036,0.078 2.168,0.58301c0.10899,0.418 0.45999,0.608 1.245,0.674c1.19,0.099 1.56799,0.922 0.494,1.075c-0.88901,0.12601 -0.729,4.716 0.17099,4.951c0.51601,0.13499 0.578,0.437 0.578,2.80701l0,2.65601l2.621,2.58398c2.347,2.31201 2.769,2.604 4.021,2.78c0.76901,0.108 1.56801,0.39999 1.77501,0.64999c0.38699,0.46701 0.711,0.483 10.272,0.52301l3.55899,0.01401l0.694,-0.884c0.382,-0.487 0.967,-1.18802 1.299,-1.55801c1.61301,-1.798 3.62401,-4.32999 3.62401,-4.565c0,-0.14398 0.172,-0.44098 0.382,-0.65799c0.20999,-0.21799 0.817,-1.07001 1.34999,-1.89401c0.533,-0.82399 1.134,-1.73698 1.336,-2.02798c0.20201,-0.291 0.57201,-0.916 0.82201,-1.38901c0.25,-0.47299 1.03799,-1.692 1.75099,-2.70999c3.14601,-4.48801 1.274,-7.96001 -5.34099,-9.907c-1.23601,-0.364 -2.82401,-0.916 -3.52901,-1.22801c-0.705,-0.31099 -1.554,-0.56599 -1.888,-0.56599c-0.33299,0 -1.037,-0.22299 -1.565,-0.496c-0.52699,-0.27299 -1.565,-0.66899 -2.30699,-0.87999c-0.741,-0.21101 -1.888,-0.58801 -2.547,-0.839c-1.86101,-0.707 -5.138,-0.638 -5.543,0.117m122.59598,12.39699c-1.47897,0.263 -1.97897,0.49001 -2.267,1.03c-0.20297,0.38 -0.76498,0.968 -1.24799,1.30501c-0.496,0.34599 -0.625,0.528 -0.297,0.41899c0.45099,-0.15099 0.39999,-0.02599 -0.22501,0.55301c-0.85199,0.78999 -1.04498,1.545 -0.44699,1.744c0.27798,0.093 0.27701,0.31799 -0.004,0.99899c-0.40701,0.98601 -1.01202,9.35399 -0.76602,10.58601c0.11301,0.564 -0.021,0.957 -0.46399,1.358c-0.431,0.38998 -0.62299,0.92899 -0.62299,1.74799c0,0.82501 -0.22702,1.453 -0.74902,2.073c-0.41199,0.48999 -0.74899,1.10599 -0.74899,1.36801c0,0.263 -0.207,0.70599 -0.45898,0.98499c-0.25201,0.27802 -0.586,0.96301 -0.742,1.522l-0.284,1.01501l0.586,-0.74902l0.586,-0.75l-0.26102,0.89902c-0.14301,0.495 -0.47,1.50598 -0.72699,2.24799c-0.474,1.37201 -1.29401,4.728 -1.60001,6.55099c-0.10599,0.63202 -0.034,1.09201 0.19299,1.23203c0.27802,0.172 0.25201,0.54898 -0.11298,1.62399c-0.26102,0.76999 -0.47501,1.64398 -0.47501,1.94199c0,0.29901 -0.27002,0.78702 -0.599,1.08502c-0.33002,0.29797 -0.60001,0.918 -0.60001,1.37698c0,0.45901 -0.11899,0.909 -0.26501,0.99899c-0.14499,0.09 -0.36099,0.80402 -0.478,1.586c-0.117,0.78302 -0.40598,1.79602 -0.642,2.25101c-0.38699,0.75 -0.379,0.828 0.08902,0.828c0.40198,0 0.43698,0.08002 0.15799,0.36002c-0.198,0.198 -0.35999,0.87198 -0.35999,1.49799l0,1.138l33.70798,0l33.70801,0l0,-20.48599l0,-20.487l-0.92999,-0.186c-0.51102,-0.103 -1.026,-0.12601 -1.14502,-0.05301c-0.259,0.16 -2.27399,0.19501 -3.31799,0.05701c-0.95398,-0.125 -3.26498,-0.52301 -4.04498,-0.69601c-3.30301,-0.73099 -11.48102,-2.13899 -13.33401,-2.29498c-0.57599,-0.048 -1.51999,-0.24301 -2.09698,-0.43201c-0.57703,-0.189 -1.38602,-0.41 -1.798,-0.492c-1.564,-0.30899 -4.35699,-1.13699 -4.651,-1.37999c-0.16901,-0.13901 -0.64102,-0.308 -1.04901,-0.375c-0.40799,-0.067 -1.11798,-0.27701 -1.57901,-0.466c-0.45999,-0.189 -1.202,-0.43401 -1.64798,-0.54401c-0.44601,-0.11 -1.08002,-0.37299 -1.41,-0.58499c-0.32901,-0.21201 -1.06,-0.467 -1.62201,-0.565c-0.56299,-0.099 -1.14398,-0.25301 -1.29099,-0.34399c-0.147,-0.091 -0.56302,-0.205 -0.92401,-0.25301c-0.36099,-0.048 -1.33099,-0.24899 -2.155,-0.446c-4.845,-1.159 -7.44901,-1.355 -10.58801,-0.79601m-5.44998,7.14c-0.07901,0.77501 -0.03299,1.299 0.10199,1.16301c0.13501,-0.13501 0.20102,-0.76901 0.14502,-1.409l-0.10202,-1.16301l-0.14499,1.409m-162.881,5.56801c-0.54501,0.81201 -0.98801,2.22101 -1.761,5.60699c-0.226,0.98901 -0.67401,2.80899 -0.99501,4.04501c-0.321,1.23599 -0.94299,3.93298 -1.38199,5.99298c-0.438,2.05902 -1.205,5.56302 -1.703,7.785c-1.062,4.737 -1.04001,5.298 0.53,14.01199c0.12,0.66702 0.175,0.67401 5.036,0.67401l4.91501,0l0.338,-1.02399c0.44,-1.33301 0.911,-1.694 2.623,-2.01401c0.77499,-0.14502 1.886,-0.569 2.46899,-0.94101c0.582,-0.37299 1.8,-0.92899 2.70599,-1.23499c0.90701,-0.30701 1.81001,-0.758 2.00801,-1.004c0.24199,-0.30103 0.616,-0.38101 1.14799,-0.24802c0.517,0.13 0.72301,0.09 0.59601,-0.11499c-0.10701,-0.173 0.017,-0.39502 0.27399,-0.49402c0.25801,-0.099 0.46901,-0.435 0.46901,-0.74698c0,-0.31201 0.13499,-0.56702 0.299,-0.56702c0.16501,0 0.3,-0.20999 0.3,-0.46698c0,-0.25702 0.13499,-0.384 0.3,-0.28201c0.164,0.10199 0.299,0.034 0.299,-0.14999c0,-0.18399 0.12,-0.26102 0.26601,-0.17102c0.146,0.091 0.44899,-0.06198 0.674,-0.33899c0.351,-0.43298 0.345,-0.47101 -0.041,-0.27399c-0.24701,0.12698 -0.112,-0.04901 0.3,-0.39102c0.41199,-0.34299 0.91699,-0.763 1.123,-0.93399c0.20599,-0.17099 0.377,-0.20499 0.37999,-0.07498c0.002,0.12997 0.103,0.09497 0.224,-0.078c0.121,-0.173 0.793,-0.48102 1.494,-0.686c1.339,-0.39102 1.62801,-0.83801 0.74901,-1.155c-0.289,-0.104 -0.86201,-0.41202 -1.274,-0.685c-2.60301,-1.72501 -8.75101,-1.87601 -11.718,-0.28802c-0.957,0.51202 -3.562,2.99301 -3.564,3.39401c-0.00101,0.18399 -0.47801,0.853 -1.06001,1.487c-1.601,1.742 -3.35899,1.07901 -3.45599,-1.30301c-0.078,-1.89899 0.067,-2.47 1.31999,-5.21899l1.24101,-2.72101l-0.02101,-3.89499c-0.015,-2.94199 -0.17299,-4.48199 -0.64799,-6.29199c-0.345,-1.319 -0.722,-3.07199 -0.838,-3.896c-0.55501,-3.96802 -2.55301,-6.896 -3.62,-5.30701m-29.17101,18.258c-0.577,0.25 -1.25101,0.56799 -1.498,0.70801c-3.397,1.914 -9.75301,4.823 -11.985,5.48401c-3.577,1.06 -5.30701,1.68597 -7.885,2.849c-1.123,0.508 -3.281,1.33698 -4.794,1.84299c-4.126,1.38 -9.031,3.94501 -10.427,5.45401c-0.267,0.28799 -0.628,0.52399 -0.80299,0.52399c-0.175,0 -0.578,0.332 -0.897,0.737c-0.318,0.405 -0.928,0.89499 -1.353,1.08899c-2.51801,1.147 -2.07,1.17001 22.565,1.17001l23.65399,0l-0.286,-0.75101c-0.157,-0.41299 -0.493,-1.15201 -0.74701,-1.64301c-0.39099,-0.75699 -1.146,-5.58099 -2.252,-14.38498c-0.476,-3.79202 -0.845,-4.138 -3.29199,-3.07901m93.183,7.54999c0,0.19202 -0.276,0.64502 -0.614,1.00803c-0.395,0.42398 -0.586,0.98099 -0.534,1.56c0.10399,1.17999 -0.347,5.51801 -0.63701,6.12299c-0.813,1.694 -1.366,2.60001 -1.71199,2.80801c-1.145,0.69 0.101,0.80899 8.44099,0.80899c6.22301,0 8.839,-0.09698 8.839,-0.32901c0,-0.84299 -1.026,-2.285 -2.095,-2.94498c-0.649,-0.40002 -1.69,-1.41101 -2.31401,-2.24701c-1.27399,-1.70502 -4.321,-4.66602 -4.80099,-4.66602c-0.173,0 -0.39099,-0.202 -0.48599,-0.44897c-0.095,-0.24701 -0.36301,-0.45001 -0.597,-0.45001c-0.233,0 -0.489,-0.24899 -0.56801,-0.55301c-0.11,-0.41998 -0.39099,-0.53699 -1.159,-0.48599c-0.55701,0.03601 -1.18201,-0.06799 -1.388,-0.233c-0.257,-0.20499 -0.375,-0.189 -0.375,0.04999m91.985,7.81403c-0.49399,1.19299 -0.702,0.98398 -0.26599,-0.26602c0.185,-0.53 0.40598,-0.89301 0.491,-0.80798c0.086,0.086 -0.01501,0.569 -0.22501,1.07401" id="svg_11"/>
           <path fill-rule="evenodd" fill="#b0aad1" d="m0,149.813l0,149.812l47.44,0l47.44,0l0.971,-1.423c0.534,-0.78299 1.412,-2.06299 1.951,-2.84601c2.31499,-3.36099 5.953,-5.63998 12.011,-7.526c8.737,-2.71899 26.81,-10.616 30.56799,-13.35599c10.21901,-7.45001 22.88501,-24.034 27.715,-36.287c0.317,-0.80499 1.14801,-2.58099 1.847,-3.94499c1.397,-2.731 1.68901,-5.61101 0.92101,-9.073c-0.369,-1.65901 -0.76801,-4.46001 -1.282,-8.98901c-0.31599,-2.78799 -0.901,-6.461 -1.957,-12.28499c-0.239,-1.31801 -0.43401,-2.72501 -0.43401,-3.127c0,-0.401 -0.19699,-1.54701 -0.437,-2.54701c-0.241,-0.99899 -0.77299,-3.569 -1.183,-5.71199c-0.741,-3.867 -1.439,-6.228 -2.439,-8.239c-0.63,-1.26801 -5.20801,-5.776 -9.17101,-9.03101c-5.866,-4.81799 -9.034,-10.573 -13.707,-24.89999c-0.52299,-1.60501 -1.347,-3.755 -1.83,-4.77701c-1.058,-2.23599 -1.16699,-2.763 -3.006,-14.50999c-1.03999,-6.64301 0.81599,-13.137 4.535,-15.866c4.354,-3.196 6.155,-11.91499 4.11099,-19.905c-0.442,-1.73 -0.93599,-4.562 -1.097,-6.292c-0.19499,-2.097 -0.61099,-4.095 -1.24699,-5.993c-1.07401,-3.201 -1.144,-7.953 -0.162,-10.847c1.81801,-5.354 2.562,-9.478 2.571,-14.259c0.006,-2.589 0.205,-6.055 0.444,-7.703c0.239,-1.648 0.437,-4.22 0.44,-5.715c0.006,-2.827 -0.01601,-2.916 -2.351,-9.361c-2.026,-5.595 -1.93001,-7.705 0.703,-15.36c0.931,-2.706 1.90399,-5.594 2.164,-6.418c0.83199,-2.644 2.562,-4.704 6.55499,-7.806c3.257,-2.529 6.717,-5.323 6.717,-5.423c0,-0.057 -35.73,-0.104 -79.39999,-0.104l-79.401,0l0,149.813m355.056,-149.643c0,0.811 3.34,4.457 4.12799,4.507c0.77301,0.049 5.16101,2.198 5.16101,2.528c0,0.157 0.33701,0.286 0.74899,0.286c0.59399,0 0.74899,-0.151 0.74899,-0.732c0,-0.402 0.13501,-0.814 0.29901,-0.916c0.16501,-0.102 0.29999,-0.557 0.29999,-1.01c0,-0.454 0.28601,-1.416 0.63501,-2.139c0.48599,-1.007 0.55899,-1.435 0.31,-1.833c-0.23898,-0.382 -0.229,-0.557 0.04001,-0.666c0.20001,-0.081 -2.50201,-0.158 -6.004,-0.171c-3.50201,-0.013 -6.367,0.052 -6.367,0.146m24.25,1.403c0.00699,0.865 0.00101,1.91 -0.01401,2.322c-0.039,1.038 0.564,3.246 1.09302,4.001c0.69199,0.989 0.625,7.882 -0.08502,8.666c-0.69897,0.771 -0.98499,13.417 -0.32098,14.212c0.21701,0.261 0.61301,1.162 0.87799,2.004c0.26599,0.841 0.56799,1.462 0.672,1.379c0.715,-0.567 1.33801,2.177 1.548,6.826c0.229,5.042 0.31201,5.321 1.63901,5.505c0.44299,0.062 0.79001,0.334 0.854,0.671c0.086,0.448 -0.02402,0.532 -0.521,0.403c-0.60001,-0.157 -0.63,-0.055 -0.63,2.186c0,2.848 0.233,2.693 -4.10101,2.725c-3.133,0.023 -3.616,0.097 -4.20999,0.642c-0.66199,0.608 -0.67999,0.609 -1.306,0.043c-0.70401,-0.636 -1.65399,-0.604 -2.423,0.082c-0.35599,0.317 -0.98898,0.42 -2.14099,0.347l-1.63602,-0.104l-2.09,1.969c-1.258,1.186 -2.24899,2.408 -2.48898,3.072c-0.21902,0.606 -0.48901,1.101 -0.60101,1.101c-0.112,0 -0.358,1.04 -0.547,2.309c-0.18799,1.27 -0.46399,2.384 -0.61099,2.475c-0.14801,0.091 -0.332,1.311 -0.41,2.71001c-0.98999,17.743 -1.12,18.949 -2.758,25.615c-0.28302,1.154 -0.634,2.585 -0.78,3.181c-0.29001,1.187 -1.53799,2.896 -4.341,5.949c-3.99802,4.35201 -7.22702,10.33 -8.177,15.14c-0.88501,4.474 -1.07101,5.638 -0.99802,6.23c0.03601,0.295 -0.16599,0.891 -0.44998,1.325c-0.38,0.58 -0.41901,0.821 -0.14902,0.911c0.203,0.068 0.36801,0.457 0.36801,0.865c0,0.418 -0.13,0.661 -0.29901,0.556c-0.448,-0.276 -0.36899,0.105 0.353,1.702c0.35901,0.795 0.82101,1.444 1.02802,1.444c0.207,0 0.46201,0.27 0.56601,0.59999c0.10498,0.32901 0.43298,0.599 0.729,0.599c0.29599,0 0.88199,0.27 1.30099,0.59901c0.41898,0.32999 1.021,0.599 1.33798,0.599c0.31802,0 0.67902,0.10199 0.80301,0.22499c0.12299,0.12401 0.772,0.22501 1.44,0.22501c2.03799,0 2.40601,0.80699 2.63,5.76599c0.10199,2.26701 0.34598,4.416 0.54199,4.776c0.19601,0.36 0.35599,1.117 0.35599,1.68201c0,0.61299 0.272,1.37399 0.67401,1.88499c1.01999,1.29601 1.22501,9.17601 0.25201,9.696c-0.384,0.20601 -0.62701,0.63101 -0.62701,1.10001c0,0.56 -0.63998,1.39099 -2.397,3.11l-2.397,2.34599l0,1.936c0,1.664 0.09399,1.99899 0.66,2.375c0.655,0.43401 0.64499,0.453 -1.19598,2.35899c-1.40601,1.455 -1.85602,2.132 -1.858,2.793c-0.00101,0.48001 -0.34802,1.46201 -0.771,2.18301c-0.73602,1.25699 -0.76001,1.44199 -0.57401,4.521c0.41699,6.89999 0.255,11.442 -0.43301,12.175c-0.34201,0.364 -0.62201,0.95099 -0.62201,1.306c0,0.82799 -0.78799,1.23199 -2.03497,1.043c-0.86502,-0.132 -1.13303,0.009 -2.173,1.13499l-1.18701,1.285l-1.34698,-1.467c-0.741,-0.80701 -1.34702,-1.688 -1.34702,-1.95801c0,-0.27 -0.26999,-0.83299 -0.60001,-1.252c-0.32898,-0.41901 -0.599,-0.925 -0.599,-1.125c0,-0.19901 -0.40399,-0.823 -0.89899,-1.386c-0.49402,-0.563 -0.89902,-1.27299 -0.89902,-1.576c0,-0.304 -0.202,-0.72 -0.44897,-0.92499c-0.255,-0.21101 -0.45001,-0.86501 -0.45001,-1.505c0,-0.894 -0.22,-1.35201 -1.048,-2.181c-0.577,-0.577 -1.04901,-1.188 -1.04901,-1.358c0,-0.481 -1.138,-0.72701 -2.34799,-0.507c-0.88599,0.161 -1.70398,0.82001 -4.24399,3.423c-4.26599,4.371 -5.63602,5.12399 -9.32602,5.12399c-3.21698,0 -5.43198,3.584 -5.741,9.293c-0.07599,1.403 -0.36798,3.358 -0.64899,4.34401c-0.28101,0.987 -0.625,2.198 -0.76401,2.69299c-0.13998,0.494 -0.34698,2.99501 -0.45999,5.558l-0.20502,4.66l2.11902,1.963c1.16599,1.07901 4.06799,3.26001 6.44901,4.84601c2.38098,1.58699 5.70999,4.105 7.397,5.59599c6.00198,5.304 9.39099,7.209 13.22,7.43001c2.37198,0.138 5.55698,-0.47301 6.508,-1.24701c0.599,-0.487 7.297,-0.45 7.89099,0.043c0.24799,0.205 1.427,0.70601 2.621,1.112c1.19299,0.405 3.08398,1.265 4.202,1.91c2.67999,1.545 5.62,2.703 7.39801,2.91299c0.79099,0.093 2.38098,0.354 3.535,0.57901c5.08499,0.992 11.98999,2.254 15.58099,2.84799c2.142,0.354 4.45999,0.76601 5.151,0.916c0.69098,0.15001 2.039,0.278 2.996,0.28401c0.957,0.00499 2.819,0.20499 4.13699,0.44299c1.319,0.23801 2.431,0.436 2.47198,0.439c0.04102,0.00301 0.07501,-35.342 0.07501,-78.54599c0,-43.203 -0.08899,-78.46301 -0.19699,-78.354c-0.32901,0.328 -1.00201,-0.427 -1.00201,-1.126c0,-0.36 -0.19699,-0.917 -0.439,-1.236c-0.496,-0.655 -0.625,-3.741 -0.17599,-4.193c0.15601,-0.156 0.32401,-1.093 0.37399,-2.082c0.082,-1.603 0.16501,-1.808 0.76599,-1.893c0.62003,-0.089 0.67401,-0.25201 0.67401,-2.04401c0,-2.33199 -0.336,-2.77399 -2.32501,-3.058l-1.41699,-0.203l0.082,-2.094c0.099,-2.511 -0.21399,-3.226 -1.073,-2.449c-0.642,0.58099 -1.009,0.333 -1.40201,-0.945c-0.12399,-0.40501 -0.647,-0.882 -1.23499,-1.12801c-0.746,-0.312 -1.02002,-0.613 -1.02002,-1.125c0,-0.384 -0.26898,-0.942 -0.599,-1.241c-0.98398,-0.89 -0.82599,-2.965 0.31302,-4.104c0.50198,-0.502 0.95599,-0.862 1.008,-0.801c0.05301,0.061 0.25201,0.411 0.44199,0.777c0.28403,0.546 0.51401,0.632 1.27701,0.479c0.69101,-0.138 1.00201,-0.058 1.20801,0.308c0.15201,0.272 0.586,0.495 0.96399,0.495c0.89502,0 1.68002,0.886 1.68002,1.896c0,0.44 0.13397,0.8 0.29898,0.8c0.16501,0 0.30002,-0.202 0.30002,-0.449c0,-0.433 0.33499,-0.574 1.12299,-0.472c0.298,0.039 0.375,-6.48 0.375,-31.725l0,-31.773l-10.354,0l-10.35501,0l0.01501,1.573m-71.71201,245.81399c0.29901,1.287 -2.32199,10.87802 -4.44998,16.28302c-1.668,4.23898 -3.134,8.79599 -3.33301,10.362c-0.207,1.63098 -1.22101,4.43298 -2.289,6.32397c-0.49399,0.875 -0.82001,1.59201 -0.72501,1.59201c0.095,0 -0.11899,0.409 -0.47501,0.909c-0.35599,0.50101 -0.673,1.07401 -0.703,1.27402c-0.03,0.19998 -0.138,0.49799 -0.23999,0.66299c-0.436,0.70801 -1.70801,4.91699 -1.89401,6.267c-0.112,0.811 -0.405,1.78101 -0.65198,2.15799c-0.24701,0.37701 -0.36401,0.94901 -0.26102,1.27301c0.10202,0.32401 0.04102,0.67899 -0.138,0.789c-0.17798,0.10999 -0.242,0.45801 -0.14099,0.77399c0.24301,0.76801 -0.10001,1.77499 -0.548,1.60699c-0.32001,-0.12 -1.108,1.10602 -1.108,1.724c0,0.13202 1.483,0.23901 3.29602,0.23901c3.02698,0 3.29498,-0.04501 3.29498,-0.564c0,-0.534 0.479,-0.61499 2.173,-0.367c0.12299,0.01801 0.224,0.23499 0.224,0.48199c0,0.73599 7.483,0.66202 7.51199,-0.07498c0.01801,-0.45401 0.052,-0.44702 0.24899,0.05899c0.21402,0.547 0.56601,-0.004 0.57901,-0.90601c0.00101,-0.08701 0.228,-0.504 0.50601,-0.927c0.27698,-0.423 0.54599,-1.05701 0.59799,-1.40799c1.01801,-6.89902 1.177,-8.513 1.10199,-11.17401c-0.05399,-1.888 0.03302,-3.11798 0.22702,-3.23801c0.173,-0.10699 0.314,-0.52499 0.314,-0.92899c0,-0.40399 0.26401,-1.306 0.58798,-2.004c1.77701,-3.83701 1.25101,-20.14001 -0.88098,-27.33801c-0.147,-0.49399 -0.41,-1.45099 -0.58499,-2.125c-0.37601,-1.448 -1.41501,-2.573 -1.80103,-1.94899c-0.13498,0.218 -0.30698,0.28 -0.38199,0.138c-0.07501,-0.142 -0.10101,-0.103 -0.05701,0.08699" id="svg_10"/>
           <path fill-rule="evenodd" fill="#814e59" d="m176.575,1.742c-1.248,2.274 -4.54599,5.813 -6.159,6.609c-0.702,0.347 -1.85001,0.968 -2.55099,1.379c-0.70001,0.411 -1.27301,0.662 -1.27301,0.556c0,-0.105 -0.293,0.065 -0.651,0.379c-0.43199,0.38 -0.575,0.42 -0.42299,0.122c0.125,-0.248 -0.06601,-0.113 -0.42401,0.299c-0.35899,0.412 -0.54599,0.547 -0.41699,0.3c0.129,-0.247 -0.257,-0.045 -0.85699,0.449c-0.60101,0.495 -1.645,1.304 -2.32101,1.798c-1.77499,1.298 -2.98399,2.46 -2.77699,2.667c0.099,0.099 0.01399,0.179 -0.188,0.179c-0.202,0 -0.284,0.135 -0.18199,0.3c0.10199,0.165 0.075,0.3 -0.05901,0.3c-0.22501,0 -1.114,1.687 -1.132,2.147c-0.004,0.11 -0.10899,0.301 -0.23199,0.424c-0.12401,0.124 -0.22501,0.467 -0.22501,0.763c0,0.296 -0.73199,1.992 -1.62799,3.77c-3.436,6.824 -3.369,8.998 0.386,12.603c3.10199,2.978 3.414,5.292 1.416,10.505c-0.59001,1.539 -1.14,3.528 -1.22301,4.42c-0.082,0.892 -0.21899,2.377 -0.30499,3.3c-0.24101,2.608 -0.65601,4.126 -2.069,7.569c-2.819,6.872 -4.339,23.92599 -2.68901,30.191c1.21701,4.62099 1.864,7.71999 2.528,12.098c0.338,2.225 0.89301,5.439 1.235,7.143c1.17601,5.863 0.201,8.014 -4.593,10.132c-4.528,2.001 -6.24799,5.374 -4.28299,8.397c0.58499,0.899 1.02699,4.91 1.03299,9.37399c0.00101,0.664 0.35501,2.08801 0.82201,3.306c0.218,0.56801 0.278,0.826 0.468,2.00401c0.08499,0.526 0.224,1.06799 0.30899,1.20499c0.08501,0.13701 0.23901,0.85301 0.343,1.591c0.554,3.946 1.142,5.31401 4.98601,11.59201c1.088,1.77899 2.35201,4.312 2.80699,5.62999c1.64,4.748 2.901,6.463 5.63301,7.66c5.605,2.45799 9.304,-1.81799 7.14499,-8.259c-0.166,-0.494 -0.56799,-2.314 -0.89299,-4.045c-0.864,-4.599 -2.073,-9.386 -3.103,-12.284c-0.772,-2.174 -0.985,-3.07201 -1.73901,-7.341c-0.34999,-1.978 -1.05899,-5.07899 -1.575,-6.892c-2.19899,-7.713 -0.88499,-12.375 4.541,-16.108c4.03101,-2.773 6.98801,-2.622 9.871,0.505c3.367,3.65301 3.377,7.90401 0.03101,14.555c-2.936,5.83701 -3.83701,8.49701 -3.43001,10.118c0.11101,0.44601 0.25301,1.621 0.31401,2.61201c0.24199,3.91399 0.76999,9.03899 1.01799,9.89099c0.465,1.593 1.26801,5.033 1.714,7.341c0.239,1.23599 0.556,2.71899 0.705,3.29601c0.14799,0.577 0.34599,1.834 0.44,2.79399c0.09399,0.96001 0.437,2.506 0.76399,3.435c0.64301,1.82901 0.811,7.90401 0.306,11c-1.619,9.903 -1.62,12.304 -0.011,17.37801c0.47101,1.483 1.077,3.505 1.347,4.494c1.42101,5.2 3.37401,8.351 6.414,10.34799c0.595,0.39101 0.70601,0.729 0.739,2.24701c0.043,1.99399 -0.01399,2.028 -2.55699,1.506c-3.10701,-0.63701 -3.291,0.01599 -3.412,12.11299c-0.125,12.56001 -0.172,12.763 -3.80901,16.53801c-2.091,2.16899 -2.52899,3.759 -2.748,9.98201c-0.235,6.659 -1.55899,14.24197 -3.73999,21.42398c-2.12401,6.992 -2.558,11.845 -1.40601,15.73001c0.293,0.98898 0.679,2.371 0.858,3.07098c0.32401,1.272 0.326,1.27301 1.735,1.27301l1.411,0l-0.14099,-1.423c-0.078,-0.78299 -0.399,-2.72501 -0.71301,-4.31601c-0.74899,-3.79999 -0.728,-4.40997 0.31201,-9.04999c0.485,-2.16599 1.241,-5.62299 1.679,-7.68201c0.439,-2.06 1.06099,-4.75699 1.38199,-5.99298c0.321,-1.23602 0.76901,-3.056 0.99501,-4.04501c1.248,-5.46298 1.873,-6.70401 3.00499,-5.96298c0.821,0.53799 2.078,3.534 2.37601,5.66299c0.116,0.82401 0.493,2.577 0.838,3.896c0.47501,1.81 0.633,3.35001 0.64799,6.29199l0.02101,3.89499l-1.24101,2.72101c-1.25299,2.74899 -1.39799,3.32001 -1.31999,5.21899c0.097,2.38202 1.855,3.04501 3.45599,1.30301c0.582,-0.634 1.05901,-1.30301 1.06001,-1.487c0.002,-0.401 2.60699,-2.88199 3.564,-3.39401c3.009,-1.60999 9.181,-1.43399 11.765,0.336c0.437,0.30002 0.936,0.54501 1.108,0.54501c0.17299,0 0.43599,0.22 0.586,0.487c0.259,0.46301 0.98799,0.646 6.465,1.62201c0.97101,0.173 2.222,0.50598 2.78101,0.73898c0.55899,0.23401 1.84599,0.57602 2.86099,0.76001c5.14301,0.93201 8.313,4.56 6.83301,7.82001c-0.326,0.71899 -0.595,1.47501 -0.599,1.681c-0.01201,0.68698 0.603,0.38498 0.916,-0.45001c0.17,-0.453 0.65999,-1.33398 1.08899,-1.957l0.78,-1.134l-0.53799,-2.16199c-0.53101,-2.13101 -0.53,-2.18301 0.078,-3.51102c2.78099,-6.07898 11.49699,-5.38599 11.952,0.95001c0.23,3.20401 -1.034,4.33701 -5.45999,4.89301c-2.06601,0.259 -2.61401,1.06699 -1.50601,2.22299c0.425,0.44299 0.772,0.96701 0.772,1.164c0,0.19699 0.147,0.358 0.326,0.358c0.213,0 0.258,-0.40399 0.13,-1.16101c-0.22601,-1.33499 0.40399,-1.703 2.28699,-1.33698c1.168,0.228 1.44101,0.54398 1.44701,1.67398l0.005,0.82401l2.547,0c3.078,0 3.295,-0.15799 4.95599,-3.617c0.29001,-0.60498 0.741,-4.94299 0.63701,-6.12299c-0.052,-0.57901 0.13899,-1.13602 0.534,-1.56c0.338,-0.36301 0.614,-0.81601 0.614,-1.00803c0,-0.23898 0.118,-0.25497 0.375,-0.04999c0.20599,0.16501 0.83099,0.26901 1.388,0.233c0.76801,-0.05099 1.049,0.06601 1.159,0.48599c0.07901,0.30402 0.33501,0.55301 0.56801,0.55301c0.23399,0 0.502,0.203 0.597,0.45001c0.095,0.24698 0.31299,0.44897 0.48599,0.44897c0.465,0 3.49701,2.931 4.761,4.60202c0.606,0.79999 1.619,1.81198 2.25101,2.24698c1.424,0.98102 1.81799,1.46301 2.05899,2.51901l0.189,0.82901l9.776,-0.08002l9.77499,-0.07898l0.19702,-0.89902c0.27298,-1.25101 1.866,-5.14398 3.14301,-7.67999c2.14697,-4.26199 1.444,-5.42999 -2.26703,-3.76599c-7.67697,3.44598 -10.14499,3.17599 -14.83099,-1.617c-1.15399,-1.17999 -2.83899,-2.61902 -3.745,-3.198c-9.2,-5.87402 -10.759,-7.44302 -11.741,-11.81601c-1.179,-5.26001 0.677,-9.995 5.496,-14.01901c6.638,-5.54199 10.02899,-9.80299 9.75299,-12.25499c-0.21799,-1.92999 -0.43298,-2.08099 -8.30199,-5.81999c-1.56601,-0.744 -3.99301,-2.21301 -5.39401,-3.263c-2.61,-1.959 -4.556,-3.22101 -8.948,-5.804c-4.39099,-2.58301 -6.823,-5.91101 -6.56799,-8.989c0.237,-2.85001 2.395,-4.153 8.175,-4.933c11.399,-1.539 14.55699,-5.731 9.18399,-12.188c-1.40799,-1.69301 -1.56599,-3.67801 -0.291,-3.67801c0.134,0 1.04901,-0.593 2.033,-1.317c0.98399,-0.72499 2.43401,-1.61899 3.222,-1.989c13.73601,-6.43599 14.03999,-6.84 8.93599,-11.84599c-3.522,-3.45399 -13.55499,-8.952 -18.26299,-10.008c-0.67401,-0.151 -2.23601,-0.50101 -3.472,-0.778c-4.284,-0.96101 -6.29201,-2.55901 -6.29201,-5.005c0,-3.33101 3.30501,-6.211 7.129,-6.211c1.32701,0 3.214,-1.56801 4.72801,-3.93001c2.53099,-3.948 3.323,-4.263 7.84299,-3.11699c4.52499,1.146 7.26801,0.11 7.26501,-2.74301c-0.00302,-3.04799 -2.57001,-4.629 -8.688,-5.353c-2.77301,-0.328 -5.36501,-2.278 -6.468,-4.868c-0.55,-1.29001 -0.45401,-4.327 0.291,-9.202c0.25099,-1.64801 0.593,-5.08701 0.759,-7.64101c0.16499,-2.554 0.511,-5.588 0.767,-6.742c0.257,-1.159 0.59799,-4.978 0.761,-8.539c0.457,-9.96 1.274,-14.115 3.317,-16.879l0.63399,-0.857l-1.004,-1.047c-0.55299,-0.576 -1.946,-1.52399 -3.095,-2.106c-2.20399,-1.117 -7.16899,-4.347 -7.496,-4.876c-0.10599,-0.172 -1.16399,-0.967 -2.351,-1.76801c-5.09399,-3.437 -6.25999,-5.682 -7.256,-13.965c-0.709,-5.902 -0.918,-7.402 -1.478,-10.637c-0.834,-4.816 -0.526,-6.96 1.25301,-8.739l1.44398,-1.444l2.72,-0.193c1.86601,-0.133 4.056,-0.028 6.97501,0.334c4.965,0.615 6.04401,0.437 10.354,-1.711c1.33099,-0.663 3.29599,-1.64 4.367,-2.17c10.194,-5.052 43.08099,-7.505 52.08701,-3.885c7.741,3.111 10.12198,6.396 15.72998,21.703c1.914,5.225 1.996,5.981 2.293,21.124c0.14502,7.41599 0.40802,14.494 0.58401,15.73c0.17599,1.236 0.44998,4.877 0.60898,8.09c0.34003,6.87199 1.28702,11.091 2.60303,11.59599c2.64398,1.014 6.09998,-6.949 7.43399,-17.125c0.55798,-4.252 1.64398,-8.061 3.00699,-10.543c0.57602,-1.048 1.51401,-2.757 2.086,-3.797c0.90701,-1.652 1.09802,-2.386 1.50201,-5.768c0.255,-2.132 0.60999,-4.415 0.79001,-5.07401c0.17899,-0.659 0.36398,-3.828 0.409,-7.042c0.06299,-4.443 0.20099,-6.201 0.577,-7.34c0.271,-0.824 0.69598,-3.723 0.944,-6.442c0.28,-3.068 0.86798,-6.82 1.54898,-9.888c1.28702,-5.79 1.423,-9.943 0.561,-17.228c-1.367,-11.553 -2.535,-13.86 -8.57001,-16.928c-2.922,-1.485 -8.57797,-6.904 -10.24298,-9.814l-0.89999,-1.573l-7.944,0c-6.241,0 -7.909,0.08 -7.78302,0.375c0.08801,0.206 0.63202,1.491 1.20801,2.857c1.05099,2.489 2.74399,5.314 3.621,6.041c0.25699,0.214 0.46799,0.688 0.46799,1.054c0,0.367 0.28702,0.923 0.638,1.237c0.35101,0.314 0.95401,1.067 1.33902,1.674c0.73499,1.157 2.17499,1.751 6.41199,2.649c2.45599,0.52 3.67502,0.953 4.36401,1.553c0.34,0.295 0.70999,0.538 0.82098,0.538c0.51401,0 1.47,1.173 2.186,2.685c0.43201,0.912 0.90701,1.861 1.05402,2.109c0.68698,1.15 0.84399,1.839 1.02399,4.494l0.19299,2.846l3.26102,3.407c5.03699,5.262 5.26999,6.34 3.14798,14.571c-1.245,4.829 -2.89499,9.242 -4.10199,10.971c-1.228,1.761 -2.061,4.855 -2.061,7.66c0,2.603 -0.49399,4.288 -1.013,3.45c-0.112,-0.183 -0.38699,-0.262 -0.60901,-0.17699c-0.22299,0.085 -0.724,-0.15601 -1.11398,-0.537c-0.68201,-0.666 -0.918,-1.087 -2.34601,-4.193c-0.354,-0.772 -1.32898,-2.319 -2.16599,-3.438c-1.50601,-2.015 -5.05402,-8.984 -6.42801,-12.626c-2.75201,-7.297 -6.68201,-11.585 -11.79199,-12.865c-6.853,-1.717 -10.01901,-1.907 -16.77902,-1.006c-1.23599,0.165 -5.34799,0.307 -9.13898,0.314c-10.83401,0.023 -14.05701,0.348 -26.66602,2.686c-1.81299,0.337 -4.50998,0.961 -5.993,1.389c-7.86099,2.266 -8.75999,2.311 -17.528,0.873c-9.108,-1.494 -14.884,-1.707 -19.476,-0.717c-1.565,0.337 -3.31799,0.68 -3.895,0.763c-0.96899,0.138 -2.32799,0.464 -7.93999,1.906c-1.153,0.296 -2.90601,0.695 -3.895,0.887c-2.12001,0.411 -5.86501,1.488 -6.29201,1.809c-0.16499,0.124 -0.802,0.316 -1.41699,0.427c-0.614,0.111 -1.709,0.654 -2.43401,1.207c-0.72499,0.553 -1.638,1.174 -2.02899,1.38c-5.16701,2.717 -11.38301,12.995 -12.134,20.062c-0.078,0.741 -0.26401,1.752 -0.412,2.24699c-0.14799,0.494 -0.27,2.14201 -0.27,3.662c-0.00099,1.52 -0.142,3.028 -0.315,3.351c-0.17299,0.32301 -0.31499,0.85101 -0.31499,1.173c0,0.552 -1.25801,3.611 -2.3,5.597c-0.26001,0.494 -0.927,2.241 -1.48401,3.881c-0.556,1.641 -1.373,3.529 -1.814,4.195c-0.44099,0.667 -1.433,3.13 -2.205,5.47501c-0.771,2.34499 -1.534,4.435 -1.696,4.645c-0.162,0.209 -0.592,1.01 -0.95599,1.779c-1.451,3.07 -3.35301,3.083 -7.18001,0.05c-1.395,-1.106 -2.36,-3.512 -3.04399,-7.591c-0.34601,-2.06 -1.011,-5.363 -1.47801,-7.341c-2.02699,-8.57201 -1.36899,-19.646 1.507,-25.366c1.15601,-2.3 2.582,-6.77 3.283,-10.289c0.618,-3.105 1.14799,-3.886 4.82399,-7.109c2.21301,-1.941 3.21701,-4.192 2.858,-6.409c-0.13499,-0.831 0.08501,-1.923 0.856,-4.254c0.57201,-1.725 1.039,-3.393 1.039,-3.708c0,-1.576 -2.239,-3.678 -4.27699,-4.017c-2.08701,-0.347 -2.32001,-0.46 -2.78101,-1.352c-0.595,-1.15 -0.12,-4.617 0.791,-5.775c0.31599,-0.401 0.57401,-0.85 0.57401,-0.998c0,-0.147 0.819,-0.868 1.819,-1.6c2.58899,-1.895 4.366,-3.596 5.342,-5.113c0.465,-0.722 1.77499,-2.326 2.91,-3.563c3.677,-4.01 6.10899,-7.815 6.10899,-9.561c0,-1.216 -1.987,-0.245 -2.901,1.418m82.99699,79.091c-0.98599,1.334 -1.89398,3.278 -1.89398,4.057c0,0.396 -0.31601,1.185 -0.702,1.753c-0.38602,0.569 -0.79703,1.62901 -0.91302,2.356c-0.11598,0.728 -0.42499,1.558 -0.68599,1.847c-0.578,0.638 0.367,1.609 5.18599,5.331c1.67001,1.289 3.229,2.727 3.466,3.196c0.23602,0.468 0.577,1.121 0.75702,1.451c0.17999,0.33 0.81699,1.61 1.41599,2.846c0.59799,1.236 1.48001,2.854 1.95801,3.596c0.479,0.741 1.65298,2.831 2.60999,4.642c4.548,8.61501 10.422,11.029 19.42801,7.986c2.27802,-0.77 4.564,-1.31599 6.271,-1.499c3.60101,-0.38499 4.88101,-1.939 3.082,-3.742c-6.142,-6.152 -6.64499,-9.095 -1.82901,-10.698c6.51901,-2.169 1.522,-6.801 -13.52698,-12.539c-3.74002,-1.426 -5.87399,-2.493 -7.771,-3.887c-3.996,-2.937 -11.728,-6.33 -14.423,-6.33c-0.39999,0 -0.84601,-0.26099 -1.02701,-0.6c-0.427,-0.797 -0.67001,-0.757 -1.40201,0.234m-37.629,-0.192c0.785,0.188 2.16901,0.535 3.076,0.772c3.84401,1.006 10.528,6.713 12.698,10.844c0.608,1.156 1.22501,2.17699 1.37201,2.267c0.146,0.091 0.35199,0.558 0.45799,1.039c0.105,0.481 0.377,1.029 0.604,1.217c1.06599,0.884 1.798,4.492 1.74899,8.609l-0.04799,3.966l-0.923,0.923c-1.01601,1.016 -1.528,0.947 -1.528,-0.206c0,-0.99 -1.521,-2.506 -2.513,-2.506c-0.455,0 -0.89101,-0.242 -1.08301,-0.6c-0.65199,-1.219 -3.59499,0.202 -3.59499,1.736c0,0.439 -0.72101,1.438 -2.00201,2.771l-2.00099,2.085l-2.179,0c-1.485,0 -2.254,0.126 -2.418,0.396c-1.592,2.633 -15.36,4.859 -17.672,2.85699c-0.3,-0.259 -1.084,-0.615 -1.743,-0.792c-0.65901,-0.17599 -1.73801,-0.527 -2.397,-0.778c-0.659,-0.252 -1.593,-0.464 -2.07401,-0.471c-0.481,-0.008 -1.088,-0.202 -1.34799,-0.432c-0.261,-0.23 -1.12701,-0.637 -1.92601,-0.905c-2.627,-0.881 -4.646,-3.927 -3.62999,-5.477c0.97899,-1.495 2.407,-2.866 3.70699,-3.562c0.757,-0.404 2.05,-1.13599 2.87401,-1.627c0.82401,-0.49 1.7,-0.994 1.94701,-1.12c0.24799,-0.125 1.222,-0.735 2.166,-1.354c0.94299,-0.62 2.05899,-1.257 2.47899,-1.417c1.42401,-0.541 1.201,-2.097 -0.3,-2.097c-0.37199,0 -0.82899,-0.184 -1.01599,-0.41c-0.213,-0.256 -1.60001,-0.54 -3.707,-0.759c-1.85201,-0.192 -4.041,-0.476 -4.86501,-0.631c-0.82399,-0.154 -1.903,-0.34399 -2.397,-0.421c-2.93599,-0.455 -3.58899,-0.735 -4.85799,-2.078c-1.98201,-2.098 -1.79901,-2.93201 1.38599,-6.288c1.511,-1.592 4.53801,-3.283 6.811,-3.804c0.8,-0.184 2.534,-0.592 3.85201,-0.907c1.31799,-0.315 3.071,-0.695 3.895,-0.844c2.243,-0.405 15.45099,-0.402 17.14899,0.004m61.543,27.431c3.23801,1.019 6.55099,3.821 6.55099,5.539c0,4.126 -8.91699,3.74 -10.74298,-0.465c-1.229,-2.832 -1.20599,-2.672 -0.535,-3.633c1.43399,-2.052 2.12299,-2.261 4.72699,-1.441m-45.53299,36.01501c2.112,0.92 4.144,3.403 4.144,5.06c0,3.414 -1.138,4.446 -5.69299,5.161c-1.235,0.194 -2.556,0.47501 -2.93501,0.625c-1.088,0.431 -5.37199,0.33101 -6.293,-0.147c-6.371,-3.31 4.033,-13.63899 10.77701,-10.69899m-4.774,31.903c7.093,2.32799 11.261,3.442 15.211,4.06499c10.18001,1.606 16.118,8.03601 9.57301,10.36601c-3.25002,1.157 -7.01102,0.327 -9.41602,-2.07901c-1.974,-1.97299 -2.509,-2.127 -7.34799,-2.106l-4.345,0.01801l-6.89101,2.606c-3.791,1.43401 -7.47,2.875 -8.17599,3.20399c-4.80301,2.23601 -13.04001,-4.103 -10.867,-8.362c0.78101,-1.53099 3.351,-3.29199 6.173,-4.231c1.06,-0.353 1.99699,-0.75499 2.08299,-0.89499c0.086,-0.13901 0.798,-0.466 1.582,-0.72701c0.78401,-0.25999 2.435,-1.008 3.66701,-1.662c2.944,-1.563 4.485,-1.597 8.754,-0.19699m-3.81599,60.297c0.659,0.25099 1.806,0.62799 2.547,0.839c0.74199,0.211 1.78,0.60699 2.30699,0.87999c0.528,0.27301 1.23201,0.496 1.565,0.496c0.334,0 1.183,0.255 1.888,0.56599c0.705,0.31201 2.293,0.86401 3.52901,1.22801c6.61499,1.94699 8.487,5.41899 5.34099,9.907c-0.713,1.01799 -1.50099,2.237 -1.75099,2.70999c-0.25,0.47301 -0.62,1.09801 -0.82201,1.38901c-0.202,0.291 -0.80299,1.20399 -1.336,2.02798c-0.53299,0.82401 -1.14,1.67603 -1.34999,1.89401c-0.21001,0.21701 -0.382,0.51401 -0.382,0.65799c0,0.23502 -2.011,2.767 -3.62401,4.565c-0.332,0.37 -0.91699,1.07101 -1.299,1.55801l-0.694,0.884l-3.55899,-0.01401c-9.561,-0.04001 -9.88501,-0.056 -10.272,-0.52301c-0.207,-0.25 -1.006,-0.54199 -1.77501,-0.64999c-1.252,-0.17599 -1.674,-0.46799 -4.021,-2.78l-2.621,-2.58398l0,-2.65601c0,-2.37001 -0.062,-2.67201 -0.578,-2.80701c-0.89999,-0.235 -1.06,-4.825 -0.17099,-4.951c1.07399,-0.153 0.696,-0.976 -0.494,-1.075c-0.785,-0.06599 -1.136,-0.256 -1.245,-0.674c-0.132,-0.505 -0.42401,-0.58301 -2.168,-0.58301c-1.94,0 -2.05501,-0.04199 -3.07701,-1.12399l-1.062,-1.123l1.76201,-0.092c1.53499,-0.08 1.827,-0.005 2.269,0.58099l0.508,0.674l2.40199,-2.455c1.76501,-1.80199 2.60501,-2.45399 3.166,-2.45399c0.457,0 0.89301,-0.24001 1.08501,-0.599c0.20801,-0.39 0.627,-0.599 1.198,-0.599c0.571,0 0.99001,-0.21001 1.19901,-0.60001c0.25999,-0.487 0.627,-0.599 1.95799,-0.599c1.43701,0 1.63701,-0.073 1.63701,-0.599c0,-0.48399 0.2,-0.599 1.03799,-0.599c0.73199,0 1.133,-0.177 1.35901,-0.59999c0.405,-0.755 3.68199,-0.82401 5.543,-0.117m106.15601,5.505c0.379,0.16299 2.60397,0.627 4.944,1.032c8.11798,1.40399 17.45297,3.504 23.17899,5.215c8.94,2.672 36.358,6.84399 36.358,5.533c0,-0.16901 -1.40799,-0.39 -3.22101,-0.50601c-2.83398,-0.181 -6.03998,-0.584 -13.302,-1.67099c-4.27899,-0.64 -15.46698,-3.04201 -20.832,-4.472c-6.50699,-1.73401 -17.35699,-3.99001 -22.48398,-4.67401c-1.94302,-0.25899 -3.936,-0.53499 -4.431,-0.61299c-0.81,-0.127 -0.83102,-0.112 -0.211,0.15601m-170.55002,14.90401c-0.67699,0.172 -3.17699,2.81299 -6.03499,6.375c-8.561,10.66998 -15.94,16.30899 -27.548,21.05298c-2.802,1.14401 -6.982,2.85501 -9.289,3.80002c-7.603,3.11697 -18.504,9.17899 -20.218,11.24399c-0.726,0.875 3.155,0.62399 4.221,-0.27301c1.026,-0.86298 5.784,-3.57898 6.859,-3.914c0.412,-0.129 2.165,-0.94897 3.895,-1.823c1.73,-0.87399 4.384,-2.00299 5.898,-2.508c1.513,-0.50598 3.671,-1.33398 4.794,-1.84198c2.581,-1.16501 4.312,-1.79001 7.885,-2.84802c2.44299,-0.72299 10.414,-4.367 11.645,-5.32401c0.60699,-0.47098 2.455,-1.125 3.52899,-1.24698c1.07701,-0.12302 1.18001,0.099 1.601,3.457c1.69801,13.517 2.45401,16.77899 3.88901,16.77899c0.51199,0 0.55499,-0.51901 0.69099,-8.164c0.15901,-9.009 0.461,-10.89099 2.614,-16.255c0.528,-1.31799 1.36601,-3.543 1.86101,-4.944c0.496,-1.401 1.53999,-4.09698 2.321,-5.992c1.76199,-4.272 2.757,-7.87198 2.145,-7.75598c-0.101,0.01898 -0.442,0.10098 -0.75801,0.18201m21.548,39.63699c-0.495,0.146 -1.26801,0.34198 -1.71899,0.436c-0.83101,0.17099 -1.49901,0.95297 -1.866,2.18198l-0.201,0.67401l4.16499,0l4.16501,0l0.34,-1.10999c0.354,-1.15201 -0.009,-2.00201 -0.91501,-2.14401c-1.58499,-0.24701 -3.213,-0.263 -3.96899,-0.03799" id="svg_9"/>
           <path fill-rule="evenodd" fill="#936673" d="m332.13599,1.446c1.5,2.757 7.43903,8.469 10.336,9.941c6.035,3.068 7.203,5.375 8.57001,16.928c0.862,7.285 0.72601,11.438 -0.561,17.228c-0.681,3.068 -1.26898,6.82 -1.54898,9.888c-0.24802,2.719 -0.673,5.618 -0.944,6.442c-0.37601,1.139 -0.51401,2.897 -0.577,7.34c-0.04501,3.214 -0.23001,6.383 -0.409,7.042c-0.18002,0.659 -0.535,2.942 -0.79001,5.07401c-0.39902,3.34 -0.60101,4.126 -1.46201,5.693c-0.54999,0.999 -1.48901,2.708 -2.086,3.797c-1.401,2.555 -2.48401,6.33 -3.047,10.618c-1.33401,10.176 -4.79001,18.139 -7.43399,17.125c-1.31601,-0.505 -2.263,-4.724 -2.60303,-11.59599c-0.159,-3.21301 -0.43298,-6.854 -0.60898,-8.09c-0.17599,-1.236 -0.439,-8.314 -0.58401,-15.73c-0.297,-15.14301 -0.379,-15.899 -2.293,-21.124c-5.608,-15.307 -7.98898,-18.592 -15.72998,-21.703c-4.45502,-1.791 -17.23502,-2.16 -30.81302,-0.89c-8.82901,0.825 -17.009,2.661 -21.27399,4.775c-1.07101,0.53 -3.03601,1.507 -4.367,2.17c-4.31,2.148 -5.38901,2.326 -10.354,1.711c-2.91901,-0.362 -5.10899,-0.467 -6.97501,-0.334l-2.72,0.193l-1.44398,1.444c-1.77901,1.779 -2.08701,3.923 -1.25301,8.739c0.56,3.235 0.769,4.735 1.478,10.637c0.996,8.283 2.162,10.528 7.256,13.965c1.18701,0.801 2.24501,1.596 2.351,1.76801c0.32701,0.529 5.29201,3.759 7.496,4.876c1.149,0.582 2.54201,1.53 3.095,2.106l1.004,1.047l-0.63399,0.857c-2.043,2.764 -2.86,6.919 -3.317,16.879c-0.16301,3.561 -0.504,7.38 -0.761,8.539c-0.256,1.154 -0.60201,4.188 -0.767,6.742c-0.166,2.554 -0.50801,5.993 -0.759,7.64101c-0.74501,4.875 -0.841,7.91199 -0.291,9.202c1.103,2.59 3.69499,4.53999 6.468,4.868c6.118,0.724 8.68498,2.30501 8.688,5.353c0.00299,2.85301 -2.74002,3.88901 -7.26501,2.74301c-4.51999,-1.14601 -5.312,-0.83101 -7.84299,3.11699c-1.51401,2.362 -3.401,3.93001 -4.72801,3.93001c-3.82399,0 -7.129,2.87999 -7.129,6.211c0,2.446 2.00801,4.04399 6.29201,5.005c1.23599,0.27699 2.79799,0.627 3.472,0.778c4.70799,1.056 14.74098,6.554 18.26299,10.008c5.104,5.006 4.80002,5.41 -8.93599,11.84599c-0.78799,0.37001 -2.23801,1.26401 -3.222,1.989c-0.98399,0.724 -1.899,1.317 -2.033,1.317c-1.27499,0 -1.11699,1.985 0.291,3.67801c5.373,6.457 2.21501,10.649 -9.18399,12.188c-5.78,0.78 -7.938,2.08299 -8.175,4.933c-0.255,3.07799 2.177,6.40599 6.56799,8.989c4.392,2.58299 6.338,3.845 8.948,5.804c1.401,1.04999 3.828,2.519 5.39401,3.263c7.869,3.739 8.084,3.89 8.30199,5.81999c0.276,2.452 -3.11499,6.713 -9.75299,12.25499c-4.819,4.02402 -6.675,8.759 -5.496,14.01901c0.98199,4.37299 2.541,5.94199 11.741,11.81601c0.90601,0.57898 2.591,2.01801 3.745,3.198c4.686,4.793 7.15402,5.06299 14.83099,1.617c3.71103,-1.664 4.414,-0.496 2.26703,3.76599c-1.26401,2.51001 -2.84802,6.383 -3.17203,7.755l-0.22998,0.97299l1.91,0c1.841,0 1.91699,-0.03 2.09,-0.82401c0.39798,-1.819 1.18399,-3.38699 3.97501,-7.91998c1.112,-1.806 2.58099,-4.91101 4.29797,-9.08301c0.33902,-0.82401 0.74301,-1.74402 0.89801,-2.04401c1.41101,-2.737 2.68701,-8.34698 1.995,-8.77499c-0.13998,-0.086 -0.608,0.12201 -1.03998,0.46201c-0.43301,0.341 -0.96301,0.61899 -1.17902,0.61899c-0.216,0 -0.56799,0.246 -0.78299,0.547c-0.216,0.30099 -0.61002,0.672 -0.87601,0.82401c-0.267,0.15201 -1.04901,0.74899 -1.73901,1.32599c-0.69098,0.57602 -1.86499,1.556 -2.61099,2.17603c-0.745,0.62 -1.78198,1.34799 -2.30499,1.61798c-0.52301,0.26901 -1.36801,0.806 -1.87799,1.194c-2.815,2.13901 -5.53,2.22101 -8.15302,0.245c-4.02899,-3.035 -5.07599,-3.87198 -6.35098,-5.077c-0.74103,-0.702 -1.95801,-1.57199 -2.703,-1.93399c-5.84001,-2.83499 -7.341,-8.92099 -3.186,-12.92001c2.07098,-1.99399 3.979,-3.51398 4.686,-3.733c0.41,-0.12698 1.47198,-0.78499 2.36099,-1.46199c0.88901,-0.677 1.99399,-1.50099 2.45401,-1.83c3.67798,-2.632 7.185,-9.131 7.15799,-13.26399c-0.026,-3.90601 -0.27802,-4.991 -1.186,-5.11501c-0.409,-0.05499 -1.01401,-0.349 -1.34399,-0.65199c-0.65302,-0.60101 -2.67599,-0.701 -8.177,-0.403c-5.71899,0.31 -9.741,-1.12001 -12.93401,-4.599c-4.03799,-4.39801 -3.10199,-8.746 2.315,-10.755c0.78,-0.289 1.755,-0.74901 2.16701,-1.022c0.41199,-0.27299 1.36099,-0.786 2.10999,-1.14101c1.74402,-0.827 3.58301,-2.50899 3.58301,-3.278c0,-0.32799 0.30301,-0.80299 0.67401,-1.05399c0.50598,-0.34401 0.59,-0.54601 0.33499,-0.811c-0.24802,-0.257 -0.25201,-0.58501 -0.01501,-1.21201c0.27002,-0.71399 0.23001,-0.963 -0.23599,-1.478c-0.30701,-0.34 -0.578,-0.867 -0.60001,-1.17c-0.022,-0.304 -0.474,-1.228 -1.004,-2.054c-0.53,-0.825 -0.88699,-1.7 -0.79398,-1.942c0.09299,-0.243 -0.02402,-0.601 -0.26001,-0.797c-1.26199,-1.048 1.319,-4.483 4.892,-6.513c2.62698,-1.492 7.85599,-1.63901 9.00598,-0.252c0.19803,0.23799 0.59201,0.433 0.87601,0.433c0.284,0 0.76401,0.274 1.06702,0.60899c0.30298,0.33501 0.76199,0.57401 1.01999,0.532c0.258,-0.043 0.642,0.03101 0.854,0.164c0.82001,0.51401 3.061,-2.30299 3.061,-3.84799c0,-2.54401 -2.86902,-6.46201 -5.06799,-6.92c-0.42603,-0.089 -1.19901,-0.347 -1.71802,-0.573c-0.51898,-0.22701 -1.46298,-0.505 -2.09698,-0.619c-1.45602,-0.26001 -3.92001,-1.73401 -7.746,-4.634c-1.64801,-1.24899 -4.21002,-3.05901 -5.69299,-4.02299c-4.77301,-3.10001 -5.81302,-4.39101 -6.55801,-8.134c-1.455,-7.30901 0.24899,-9.88501 6.315,-9.552c6.69901,0.368 11.44501,-4.061 9.08899,-8.48199c-1.367,-2.565 -3.64798,-4.14101 -8.09299,-5.59201c-6.08101,-1.98399 -7.29701,-3.765 -6.02301,-8.81799c0.92401,-3.662 1.14301,-6.366 1.808,-22.357c0.52301,-12.559 1.882,-13.131 10.61201,-4.468c1.52698,1.515 2.216,2.577 4.06198,6.261c3.68402,7.351 5.99902,9.279 13.87802,11.556c2.65598,0.768 5.72598,0.03 7.164,-1.722c1.34,-1.632 5.164,-2.645 12.30499,-3.26c3.70099,-0.31799 5.17899,-2.022 5.17899,-5.96999c0,-1.318 -0.10498,-2.605 -0.233,-2.858c-0.25,-0.496 2.25302,-1.962 2.78702,-1.632c0.53799,0.332 3.85999,-1.629 4.34399,-2.563c1.306,-2.527 -7.30301,-11.339 -14.539,-14.881c-3.89099,-1.905 -8.04099,-3.754 -10.535,-4.695c-7.42499,-2.803 -6.867,-2.476 -10.67401,-6.252c-4.48297,-4.447 -5.52197,-8.849 -2.883,-12.213c0.194,-0.247 0.65601,-1.056 1.02701,-1.798c0.371,-0.741 1.16199,-1.768 1.758,-2.281c3.763,-3.242 4.55099,-13.896 1.259,-17.026c-1.95099,-1.855 -0.465,-4.341 3.69601,-6.182c2.625,-1.16 10.246,-1.899 17.401,-1.685c9.634,0.287 13.70599,2.666 17.948,10.487c3.42798,6.32 4.22598,11.024 4.66199,27.474c0.27899,10.515 0.392,11.616 1.95599,19.026c0.24301,1.154 0.578,4.592 0.745,7.641c0.33002,6.055 0.45001,7.28 1.08002,11.086c0.23199,1.401 0.54099,4.704 0.68701,7.341c0.34399,6.238 1.17899,8.23899 3.43997,8.23899c1.85602,0 2.83002,-1.57399 3.522,-5.69299c0.21002,-1.243 1.01202,-3.41 2.22,-5.992c1.04102,-2.22501 1.98001,-4.382 2.086,-4.79401c0.32901,-1.268 4.362,-14.105 5.13501,-16.341c0.39999,-1.16 1.48199,-3.25 2.40201,-4.644c2.73099,-4.136 4.37198,-8.285 4.883,-12.343c0.69501,-5.527 0.98599,-10.785 0.80798,-14.593c-0.33899,-7.217 0.47803,-18.614 1.65302,-23.09c1.711,-6.516 1.354,-20.701 -0.64401,-25.618c-2.30298,-5.666 -4.159,-8.229 -7.828,-10.815c-2.90698,-2.048 -3.57199,-2.742 -4.75497,-4.961c-0.50302,-0.944 -1.33301,-2.096 -1.845,-2.559c-0.51102,-0.463 -1.18201,-1.077 -1.49002,-1.366c-0.448,-0.419 -1.10199,-0.524 -3.27499,-0.524l-2.716,0l0.78799,1.446m-166.59299,1.119c-0.494,0.255 -2.24699,1.843 -3.895,3.529c-1.64799,1.686 -4.09799,3.974 -5.44499,5.085c-3.061,2.525 -4.192,4.166 -4.442,6.447c-0.283,2.581 -0.924,4.334 -2.44099,6.679c-2.472,3.822 -2.108,7.214 1.39799,12.998c2.851,4.705 3.105,6.244 1.89999,11.497c-0.241,1.05 -0.564,3.342 -0.718,5.094c-0.153,1.752 -0.554,4.196 -0.89099,5.432c-1.797,6.603 -2.241,9.152 -3.627,20.824c-0.619,5.213 -0.215,11.436 1.03,15.833c1.097,3.879 1.713,7.568 2.349,14.076c0.548,5.614 -0.403,7.68501 -4.659,10.145c-4.754,2.749 -5.79201,4.836 -5.463,10.98899c0.334,6.25 0.97198,9.68901 2.433,13.11801c0.71199,1.67099 1.72699,4.56999 2.256,6.442c4.605,16.28299 10.52699,23.86 20.36499,26.05499c4.88701,1.09 5.70001,2.244 6.121,8.692c0.295,4.52699 1.04201,10.40601 1.67101,13.15199c0.321,1.40001 0.86301,3.76001 1.20599,5.24301c0.74701,3.237 1.37001,8.287 1.62601,13.18399c0.103,1.97701 0.41299,4.87601 0.688,6.442c1.252,7.121 0.633,10.67401 -2.457,14.09401c-3.119,3.452 -5.13301,6.284 -7.52501,10.57899c-1.12,2.013 -7.67499,11.17401 -10.18599,14.237c-0.22101,0.26999 -1.45401,1.84399 -2.739,3.49899c-1.28601,1.655 -3.01201,3.61002 -3.83601,4.345c-0.82399,0.73401 -1.56499,1.41101 -1.64799,1.50302c-0.194,0.21698 -3.914,3.237 -5.01599,4.073c-0.468,0.35498 -1.52,1.013 -2.33701,1.461c-0.817,0.44897 -1.91501,1.13599 -2.44,1.52698c-0.524,0.392 -1.146,0.71201 -1.382,0.71201c-0.23599,0 -0.77199,0.26901 -1.19099,0.599c-0.41901,0.32901 -0.85899,0.599 -0.97701,0.599c-0.118,0 -1.041,0.35202 -2.05,0.78302c-2.049,0.87299 -2.57199,1.08698 -4.07399,1.664c-0.573,0.21997 -2.896,1.31 -5.162,2.42398c-2.267,1.11301 -4.832,2.302 -5.701,2.64099c-2.30299,0.90002 -5.661,2.77301 -9.031,5.035c-1.626,1.09201 -3.297,2.21002 -3.713,2.48602c-0.416,0.276 -0.839,0.61798 -0.939,0.75998c-0.1,0.142 -0.57,0.556 -1.046,0.922c-1.694,1.30103 -0.386,0.63602 1.868,-0.94998c2.97501,-2.09302 11.34901,-6.40701 16.674,-8.59c2.307,-0.94501 6.487,-2.65601 9.289,-3.80002c11.608,-4.74399 18.987,-10.383 27.548,-21.05298c7.20599,-8.98102 8.68799,-8.59801 4.64799,1.19897c-0.78101,1.89502 -1.825,4.591 -2.321,5.992c-0.495,1.401 -1.33301,3.62601 -1.86101,4.944c-2.153,5.36401 -2.45499,7.246 -2.614,16.255l-0.14499,8.164l0.78099,0c0.429,0 0.78,-0.104 0.78,-0.23099c0,-0.12701 0.46501,-0.48203 1.034,-0.78802c1.317,-0.70898 1.48801,-1.48199 1.19301,-5.37698c-0.564,-7.44202 -0.15201,-10.39999 2.47,-17.72299c2.90599,-8.11401 5.41499,-12.63 6.44499,-11.60001c0.94301,0.94199 -0.164,8.401 -1.883,12.70099c-1.963,4.90802 -3.59599,10.76599 -4.16699,14.95001c-0.18901,1.38901 -0.50301,2.728 -0.696,2.97501c-0.78001,0.99899 -1.03001,1.69699 -0.772,2.15799c0.17599,0.315 0.116,0.59399 -0.18201,0.841c-0.245,0.20398 -0.44499,0.758 -0.44499,1.23199c0,0.87601 0.424,1.17099 0.7,0.48801c0.121,-0.30002 0.15599,-0.30002 0.175,0c0.036,0.57098 7.814,0.535 7.814,-0.03601c0,-0.22598 -0.27299,-1.26401 -0.606,-2.306c-1.72499,-5.39999 -1.51599,-9.30701 0.93001,-17.358c2.181,-7.18201 3.50499,-14.76498 3.73999,-21.42398c0.21901,-6.22301 0.657,-7.81302 2.748,-9.98201c3.63701,-3.77501 3.68401,-3.978 3.80901,-16.53801c0.121,-12.097 0.30499,-12.75 3.412,-12.11299c2.543,0.522 2.59999,0.48799 2.55699,-1.506c-0.03299,-1.51801 -0.144,-1.856 -0.739,-2.24701c-3.03999,-1.99699 -4.993,-5.14799 -6.414,-10.34799c-0.27,-0.989 -0.87599,-3.011 -1.347,-4.494c-1.60899,-5.07401 -1.608,-7.47501 0.011,-17.37801c0.505,-3.09599 0.33701,-9.17099 -0.306,-11c-0.327,-0.929 -0.67,-2.47499 -0.76399,-3.435c-0.09401,-0.95999 -0.29201,-2.217 -0.44,-2.79399c-0.149,-0.57701 -0.466,-2.06001 -0.705,-3.29601c-0.446,-2.308 -1.24901,-5.748 -1.714,-7.341c-0.248,-0.85201 -0.776,-5.97701 -1.01799,-9.89099c-0.061,-0.99101 -0.203,-2.166 -0.31401,-2.61201c-0.407,-1.62099 0.494,-4.28099 3.43001,-10.118c3.34599,-6.65099 3.336,-10.90199 -0.03101,-14.555c-2.883,-3.127 -5.84,-3.278 -9.871,-0.505c-5.42599,3.733 -6.73999,8.395 -4.541,16.108c0.51601,1.813 1.22501,4.914 1.575,6.892c0.75401,4.269 0.96701,5.16701 1.73901,7.341c1.03,2.89799 2.239,7.685 3.103,12.284c0.325,1.731 0.72699,3.55099 0.89299,4.045c2.15901,6.44101 -1.53999,10.717 -7.14499,8.259c-2.73201,-1.19701 -3.99301,-2.912 -5.63301,-7.66c-0.45499,-1.31799 -1.71899,-3.851 -2.80699,-5.62999c-3.84401,-6.278 -4.43201,-7.64601 -4.98601,-11.59201c-0.10399,-0.73799 -0.258,-1.45399 -0.343,-1.591c-0.08499,-0.13699 -0.224,-0.67899 -0.30899,-1.20499c-0.19,-1.17801 -0.25,-1.436 -0.468,-2.00401c-0.467,-1.21799 -0.821,-2.642 -0.82201,-3.306c-0.006,-4.46399 -0.448,-8.47499 -1.03299,-9.37399c-1.965,-3.023 -0.24501,-6.396 4.28299,-8.397c4.79401,-2.118 5.76901,-4.269 4.593,-10.132c-0.342,-1.704 -0.897,-4.918 -1.235,-7.143c-0.664,-4.37801 -1.31099,-7.47701 -2.528,-12.098c-1.564,-5.942 -0.08499,-23.73 2.47,-29.697c0.576,-1.346 0.784,-2.164 0.58301,-2.289c-0.172,-0.106 -0.22301,-0.341 -0.11101,-0.521c0.11101,-0.179 0.067,-0.578 -0.09799,-0.886c-0.207,-0.388 -0.19301,-0.666 0.04599,-0.905c0.22501,-0.225 0.235,-0.346 0.02901,-0.346c-0.61,0 0.076,-5.08 0.931,-6.891c0.194,-0.412 0.338,-0.951 0.31799,-1.199c-0.019,-0.247 0.08101,-0.853 0.222,-1.348c0.14101,-0.494 0.32201,-1.168 0.401,-1.498c0.21701,-0.904 0.15401,-3.68 -0.12799,-5.627c-0.138,-0.953 -0.15401,-2.369 -0.035,-3.146c0.194,-1.274 0.129,-1.523 -0.64999,-2.507c-2.798,-3.538 -2.746,-5.35 0.32399,-11.342c1.49001,-2.907 1.989,-4.356 2.293,-6.645c0.162,-1.219 0.761,-2.788 1.87801,-4.917c0.267,-0.509 1.567,-1.876 2.88899,-3.038c2.40001,-2.11 2.675,-2.47 3.60901,-4.726c0.429,-1.037 1.049,-3.149 0.922,-3.144c-0.024,0.001 -0.448,0.211 -0.942,0.466m95.431,78.034c0.181,0.339 0.62701,0.6 1.02701,0.6c2.69501,0 10.427,3.39301 14.423,6.33c1.897,1.394 4.03098,2.461 7.771,3.887c15.04898,5.738 20.04599,10.37 13.52698,12.539c-4.81598,1.603 -4.31299,4.546 1.82901,10.698c1.79901,1.803 0.51901,3.357 -3.082,3.742c-1.707,0.18301 -3.99298,0.729 -6.271,1.499c-9.00601,3.043 -14.88,0.62901 -19.42801,-7.986c-0.957,-1.811 -2.13098,-3.90099 -2.60999,-4.642c-0.478,-0.742 -1.36002,-2.36 -1.95801,-3.596c-0.599,-1.236 -1.23599,-2.516 -1.41599,-2.846c-0.18002,-0.32999 -0.521,-0.98299 -0.75702,-1.451c-0.237,-0.469 -1.79599,-1.907 -3.466,-3.196c-4.81898,-3.722 -5.76399,-4.693 -5.18599,-5.331c0.261,-0.289 0.57001,-1.119 0.68599,-1.847c0.116,-0.727 0.52701,-1.787 0.91302,-2.356c0.38599,-0.568 0.702,-1.35699 0.702,-1.753c0,-1.134 2.10599,-4.89 2.742,-4.89c0.12799,0 0.37698,0.27 0.55399,0.599m78.07199,59.817c0.108,1.616 0.65002,2.424 0.92401,1.377c0.09601,-0.368 0.315,-0.66901 0.48599,-0.66901c0.17102,0 0.108,-0.23599 -0.13901,-0.52499c-0.24799,-0.28799 -0.534,-0.75999 -0.63699,-1.048c-0.358,-1.01199 -0.72598,-0.511 -0.634,0.86501m-112.52899,146.049c-1.48199,0.67001 -3.29601,2.26199 -3.29601,2.89301c0,0.30798 0.13901,0.327 0.59901,0.07999c0.32999,-0.17599 0.599,-0.23199 0.599,-0.12299c0,0.108 0.16899,0.06601 0.375,-0.095c0.61499,-0.478 5.26599,-0.22202 5.868,0.323c0.744,0.673 0.853,4.56601 0.151,5.34201c-0.754,0.83398 -0.30301,0.95999 1.401,0.39398c2.14999,-0.71399 2.77699,-1.75098 2.59399,-4.29199c-0.3,-4.17801 -4.26599,-6.341 -8.291,-4.522" id="svg_8"/>
           <path fill-rule="evenodd" fill="#a37291" d="m164.353,0.286c-0.097,0.157 -0.813,0.636 -1.591,1.063c-0.86499,0.476 -1.79599,1.338 -2.39999,2.225c-1.172,1.721 -4.215,4.883 -7.048,7.324c-2.57199,2.216 -3.34,3.438 -4.217,6.711c-0.386,1.438 -1.255,3.767 -1.92999,5.174c-2.60501,5.426 -2.06601,9.579 2.032,15.651c2.144,3.176 2.52199,5.6 1.541,9.869c-0.31401,1.366 -0.73201,3.764 -0.93001,5.33c-0.198,1.566 -0.877,5.273 -1.50999,8.24c-0.633,2.966 -1.371,7.483 -1.64101,10.037c-0.26999,2.55399 -0.595,5.606 -0.72299,6.782c-0.44901,4.139 0.146,13.723 1.01999,16.439c1.054,3.276 1.54201,6.303 1.966,12.192c0.535,7.427 0.04401,8.909 -3.659,11.047c-6.912,3.993 -7.793,6.973 -5.93001,20.057c0.369,2.59 0.98401,4.66299 1.96201,6.618c0.767,1.533 1.62401,3.972 2.715,7.728c2.74101,9.44101 7.38501,17.59801 11.94501,20.98401c3.61299,2.683 3.84799,2.81999 7.20599,4.196c4.70801,1.931 5.28101,2.853 6.71501,10.811c0.51999,2.88399 1.42899,7.67 2.01999,10.63699c1.69101,8.48 1.83,9.368 2.334,14.87801c0.261,2.85799 0.739,7.034 1.06201,9.28c1.017,7.06499 0.685,9.485 -1.66101,12.09599c-1.34599,1.498 -4.423,6.34399 -6.923,10.901c-4.435,8.08501 -13.50499,19.45001 -20.31898,25.461c-6.13901,5.41602 -7.908,6.42001 -20.39601,11.58099c-4.285,1.771 -8.937,3.75302 -10.338,4.40402c-1.4,0.65198 -3.558,1.59 -4.794,2.08499c-2.566,1.02701 -5.79,2.685 -6.891,3.54401c-0.412,0.32098 0.406,0.00699 1.819,-0.698c1.41199,-0.70401 3.636,-1.66 4.943,-2.12402c1.307,-0.46298 3.388,-1.34799 4.624,-1.96698c1.236,-0.61801 5.53899,-2.42902 9.562,-4.02301c14.397,-5.70599 16.677,-7.099 25.30099,-15.452c5.54001,-5.366 13.79401,-15.76601 16.80901,-21.181c2.38699,-4.287 4.403,-7.121 7.52,-10.571c3.09,-3.42 3.709,-6.97301 2.457,-14.09401c-0.27501,-1.56599 -0.58501,-4.465 -0.688,-6.442c-0.256,-4.89699 -0.879,-9.94699 -1.62601,-13.18399c-0.34299,-1.483 -0.88499,-3.843 -1.20599,-5.24301c-0.629,-2.74599 -1.37601,-8.625 -1.67101,-13.15199c-0.42099,-6.448 -1.23399,-7.60201 -6.121,-8.692c-9.838,-2.19499 -15.75999,-9.772 -20.36499,-26.05499c-0.52901,-1.87201 -1.54401,-4.77101 -2.256,-6.442c-1.46101,-3.429 -2.099,-6.86801 -2.433,-13.11801c-0.32901,-6.15299 0.709,-8.23999 5.463,-10.98899c4.256,-2.46 5.207,-4.53101 4.659,-10.145c-0.636,-6.508 -1.252,-10.197 -2.349,-14.076c-1.245,-4.397 -1.649,-10.62 -1.03,-15.833c1.386,-11.672 1.83,-14.221 3.627,-20.824c0.33699,-1.236 0.73799,-3.68 0.89099,-5.432c0.15401,-1.752 0.47701,-4.044 0.718,-5.094c1.205,-5.253 0.951,-6.792 -1.89999,-11.497c-3.506,-5.784 -3.87,-9.176 -1.39799,-12.998c1.517,-2.345 2.15799,-4.098 2.44099,-6.679c0.24899,-2.273 1.37801,-3.918 4.40601,-6.423c1.327,-1.098 3.93199,-3.529 5.78899,-5.401c1.85701,-1.873 3.58101,-3.405 3.83101,-3.405c0.25,0 0.882,-0.539 1.40399,-1.198l0.94901,-1.199l-1.80499,0c-0.99301,0 -1.88501,0.129 -1.98201,0.286m172.72601,-0.025c0,0.144 0.46399,0.579 1.03198,0.968c0.56799,0.389 1.34302,1.225 1.72302,1.856c2.30499,3.834 2.69498,4.265 6.03098,6.654c4.59802,3.293 7.74002,8.569 8.922,14.98c0.73401,3.98 0.164,17.186 -0.918,21.274c-1.14297,4.315 -1.95499,15.815 -1.621,22.94c0.17801,3.808 -0.11298,9.066 -0.80798,14.593c-0.51102,4.058 -2.15201,8.207 -4.883,12.343c-0.92001,1.394 -2.00201,3.48399 -2.40201,4.644c-0.77301,2.236 -4.806,15.073 -5.13501,16.341c-0.10599,0.412 -1.04498,2.569 -2.086,4.79401c-1.20798,2.582 -2.00998,4.749 -2.22,5.992c-0.69199,4.119 -1.66599,5.69299 -3.522,5.69299c-2.26099,0 -3.09598,-2.00099 -3.43997,-8.23899c-0.14603,-2.637 -0.45502,-5.94 -0.68701,-7.341c-0.63,-3.806 -0.75,-5.031 -1.08002,-11.086c-0.16699,-3.049 -0.50198,-6.487 -0.745,-7.641c-1.564,-7.41 -1.677,-8.511 -1.95599,-19.026c-0.436,-16.45 -1.23401,-21.154 -4.66199,-27.474c-4.242,-7.821 -8.314,-10.2 -17.948,-10.487c-7.155,-0.214 -14.776,0.525 -17.401,1.685c-4.16101,1.841 -5.647,4.327 -3.69601,6.182c3.29199,3.13 2.504,13.784 -1.259,17.026c-0.59601,0.513 -1.38699,1.54 -1.758,2.281c-0.371,0.742 -0.83301,1.551 -1.02701,1.798c-2.63898,3.364 -1.59998,7.766 2.883,12.213c3.80701,3.776 3.24902,3.449 10.67401,6.252c2.49402,0.941 6.64401,2.79 10.535,4.695c7.23599,3.542 15.845,12.354 14.539,14.881c-0.48401,0.934 -3.806,2.895 -4.34399,2.563c-0.534,-0.32999 -3.03702,1.136 -2.78702,1.632c0.12802,0.253 0.233,1.54 0.233,2.858c0,3.948 -1.478,5.652 -5.17899,5.96999c-7.14099,0.61501 -10.965,1.62801 -12.30499,3.26c-1.43802,1.752 -4.50803,2.49 -7.164,1.722c-7.879,-2.277 -10.194,-4.205 -13.87802,-11.556c-2.336,-4.661 -2.60498,-5.002 -7.80099,-9.864c-1.72598,-1.615 -2.04401,-1.791 -3.45401,-1.908c-2.54999,-0.211 -3.05598,1.26601 -3.41899,9.979c-0.66499,15.991 -0.88399,18.695 -1.808,22.357c-1.274,5.05299 -0.058,6.834 6.02301,8.81799c4.44501,1.451 6.72598,3.02701 8.09299,5.59201c2.35602,4.42099 -2.38998,8.84999 -9.08899,8.48199c-6.06601,-0.33301 -7.77,2.243 -6.315,9.552c0.745,3.743 1.785,5.034 6.55801,8.134c1.48297,0.96399 4.04498,2.774 5.69299,4.02299c3.82599,2.89999 6.28998,4.37399 7.746,4.634c0.634,0.114 1.578,0.392 2.09698,0.619c0.51901,0.226 1.29199,0.48399 1.71802,0.573c2.19897,0.45799 5.06799,4.37599 5.06799,6.92c0,1.545 -2.241,4.362 -3.061,3.84799c-0.21201,-0.133 -0.59601,-0.207 -0.854,-0.164c-0.258,0.04201 -0.71701,-0.19699 -1.01999,-0.532c-0.30301,-0.33499 -0.78302,-0.60899 -1.06702,-0.60899c-0.284,0 -0.67798,-0.19501 -0.87601,-0.433c-1.14999,-1.38701 -6.379,-1.24001 -9.00598,0.252c-3.573,2.03 -6.15399,5.465 -4.892,6.513c0.23599,0.196 0.353,0.554 0.26001,0.797c-0.09302,0.242 0.26398,1.117 0.79398,1.942c0.53,0.826 0.98199,1.75 1.004,2.054c0.022,0.30299 0.293,0.83 0.60001,1.17c0.466,0.515 0.50601,0.76401 0.23599,1.478c-0.237,0.627 -0.233,0.955 0.01501,1.21201c0.255,0.265 0.17099,0.467 -0.33499,0.811c-0.371,0.25099 -0.67401,0.726 -0.67401,1.05399c0,0.76901 -1.83899,2.451 -3.58301,3.278c-0.74899,0.35501 -1.698,0.86801 -2.10999,1.14101c-0.412,0.27299 -1.38701,0.733 -2.16701,1.022c-10.70399,3.97 -2.34399,16.05699 10.619,15.354c5.50101,-0.298 7.52399,-0.19801 8.177,0.403c0.32999,0.30299 0.935,0.597 1.34399,0.65199c0.90799,0.12401 1.16,1.209 1.186,5.11501c0.02701,4.133 -3.48001,10.63199 -7.15799,13.26399c-0.46002,0.32901 -1.565,1.153 -2.45401,1.83c-0.88901,0.677 -1.95099,1.33501 -2.36099,1.46199c-0.707,0.21902 -2.61502,1.73901 -4.686,3.733c-4.155,3.99902 -2.65401,10.08502 3.186,12.92001c0.745,0.362 1.96198,1.23199 2.703,1.93399c1.27499,1.20502 2.32199,2.04199 6.35098,5.077c2.62302,1.97601 5.33801,1.89401 8.15302,-0.245c0.50998,-0.388 1.35498,-0.92499 1.87799,-1.194c0.52301,-0.26999 1.56,-0.99799 2.30499,-1.61798c0.746,-0.62003 1.92001,-1.60001 2.61099,-2.17603c0.69,-0.577 1.47202,-1.17398 1.73901,-1.32599c0.26599,-0.15201 0.66,-0.52301 0.87601,-0.82401c0.215,-0.30099 0.56699,-0.547 0.78299,-0.547c0.216,0 0.746,-0.27798 1.17902,-0.61899c0.43198,-0.34 0.89999,-0.548 1.03998,-0.46201c0.69202,0.42801 -0.58398,6.03799 -1.995,8.77499c-0.155,0.29999 -0.55899,1.22 -0.89801,2.04401c-2.26898,5.51801 -3.48898,7.996 -5.16299,10.487c-1.19498,1.77701 -2.88,5.255 -3.08398,6.367c-0.31799,1.728 1.94501,1.46298 2.526,-0.29602c0.22998,-0.698 1.306,-2.82098 2.39099,-4.71899c1.08401,-1.897 2.689,-5 3.565,-6.89499c0.875,-1.896 2.85901,-5.98102 4.40701,-9.08002c6.35199,-12.711 9.66898,-25.53598 7.85999,-30.38899c-0.42099,-1.12999 -2.45499,-3.077 -3.21301,-3.07799c-0.95999,0 -2.44897,-1.55301 -2.44897,-2.552c0,-0.548 -0.18903,-0.85001 -0.599,-0.957c-0.50803,-0.13301 -0.60001,-0.40901 -0.60001,-1.798c0,-1.38901 -0.09201,-1.66499 -0.599,-1.797c-0.33002,-0.08701 -0.599,-0.339 -0.599,-0.561c0,-0.222 0.26898,-0.548 0.599,-0.72501c0.32999,-0.17599 0.599,-0.502 0.599,-0.724c0,-0.22299 -0.26901,-0.47499 -0.599,-0.56099c-0.43402,-0.114 -0.599,-0.40901 -0.599,-1.073c0,-0.61 0.19998,-1.024 0.599,-1.237c0.457,-0.24501 0.599,-0.62801 0.599,-1.612c0,-0.91101 0.177,-1.451 0.60001,-1.834c0.44299,-0.401 0.599,-0.923 0.599,-2.00301c0,-0.98401 0.138,-1.515 0.42398,-1.62401c0.80002,-0.30699 1.94501,-2.366 2.23102,-4.013c0.15799,-0.907 0.50497,-2.91399 0.771,-4.461c0.267,-1.54799 0.57498,-2.95799 0.68399,-3.136c0.461,-0.745 1.314,-16.021 0.909,-16.26999c-0.58099,-0.358 -0.24399,-6.664 0.37399,-6.99501c0.94,-0.50299 0.88303,-4.23 -0.07498,-4.875l-0.67401,-0.45499l1.27301,-1.18401c1.14398,-1.063 1.27399,-1.325 1.27399,-2.56801c0,-1.077 0.133,-1.45499 0.599,-1.70399c0.47501,-0.254 0.599,-0.62799 0.599,-1.798c0,-1.17 0.125,-1.54399 0.60001,-1.79799c0.46802,-0.25101 0.599,-0.629 0.60199,-1.733c0.00201,-1.27 0.12302,-1.519 1.19501,-2.46201c1.07202,-0.942 1.19299,-1.19099 1.19601,-2.461c0.00198,-1.104 0.134,-1.483 0.60199,-1.733c0.543,-0.291 0.599,-0.62799 0.599,-3.59599c0,-2.968 -0.056,-3.30501 -0.599,-3.595c-0.396,-0.21201 -0.599,-0.62801 -0.599,-1.224c0,-1.11101 -1.289,-2.349 -2.46201,-2.362c-0.49899,-0.00601 -0.93698,-0.241 -1.134,-0.60901c-0.20499,-0.384 -0.62698,-0.599 -1.172,-0.599c-0.53998,0 -1.03,-0.24699 -1.33798,-0.675l-0.48602,-0.674l-0.48599,0.674c-0.30798,0.42801 -0.798,0.675 -1.33798,0.675c-0.55301,0 -0.96701,0.216 -1.18201,0.617c-0.46301,0.866 -1.01199,0.56999 -1.189,-0.64101c-0.146,-1.00299 -0.18301,-1.02699 -1.72,-1.116c-1.19202,-0.06799 -1.647,-0.231 -1.884,-0.674c-0.17102,-0.321 -0.509,-0.58301 -0.75101,-0.58301c-0.664,0 -0.526,-1.10599 0.16101,-1.286c0.509,-0.133 0.599,-0.408 0.599,-1.832c0,-1.136 0.121,-1.679 0.37399,-1.686c0.76199,-0.019 2.02301,-1.44899 2.026,-2.29799c0.00198,-0.60001 0.34201,-1.13701 1.19501,-1.88701c1.008,-0.886 1.19299,-1.23099 1.19598,-2.224c0.00201,-0.692 0.21701,-1.411 0.52402,-1.75099c1.53299,-1.694 1.69199,-8.19 0.23999,-9.795c-2.30899,-2.551 0.957,-4.47101 7.64401,-4.494c4.12198,-0.015 5.35498,-0.496 6.74298,-2.636c1.40701,-2.168 6.31302,-7.565 6.87701,-7.565c0.19498,0 0.59799,-0.269 0.896,-0.599c2.444,-2.701 5.03598,1.955 5.58798,10.038c0.60602,8.87699 2.01801,12.428 5.547,13.95c1.263,0.54399 3.69702,3.56999 3.69702,4.59599c0,0.248 0.151,0.783 0.33499,1.188c0.51102,1.12199 -0.01901,2.94699 -0.99301,3.41499c-0.82898,0.39801 -1.10199,0.328 -3.237,-0.82899c-2.056,-1.114 -3.858,-0.658 -5.77399,1.463c-2.46799,2.73199 -2.83899,4.836 -2.14301,12.153c0.267,2.812 0.48999,5.315 0.495,5.562c0.02902,1.47301 1.39001,2.397 3.53,2.397c4.99301,0 7.74002,-2.64 8.98203,-8.629c0.37698,-1.819 2.00598,-4.55501 2.71298,-4.55501c2.242,0 5.979,-8.35699 5.979,-13.37099c0,-3.492 -0.642,-4.48801 -5.59799,-8.692c-2.88101,-2.444 -3.185,-6.812 -0.82901,-11.91601c0.54001,-1.169 1.53201,-3.946 2.20599,-6.171c0.673,-2.224 1.552,-4.921 1.952,-5.992c0.40002,-1.071 1.34802,-3.68401 2.10703,-5.805c1.63998,-4.586 1.71899,-4.748 3.133,-6.48c2.08398,-2.55099 3.397,-5.455 5.01099,-11.086c0.70102,-2.447 0.73502,-2.98 0.85602,-13.633c0.22,-19.319 0.38599,-21.788 1.80698,-26.816c0.94601,-3.344 1.086,-4.808 1.19702,-12.435c0.13699,-9.379 0.05698,-9.884 -2.44501,-15.442c-2.38101,-5.29 -3.42099,-6.774 -6.034,-8.609c-2.85501,-2.004 -4.34799,-3.608 -5.39801,-5.802c-1.14099,-2.385 -2.53699,-3.555 -4.241,-3.555c-0.668,0 -1.21399,0.117 -1.21399,0.261m-31.69501,46.405c1.108,0.131 2.17999,0.403 2.38199,0.606c0.203,0.203 0.62701,0.368 0.94101,0.368c1.802,0 6.78,6.348 7.754,9.888c0.40701,1.476 0.28101,5.475 -0.224,7.139c-0.23401,0.77 -0.427,2.108 -0.42899,2.973c-0.00101,0.866 -0.138,1.573 -0.302,1.573c-0.85101,0 0.03497,4.867 1.10098,6.05c0.55402,0.614 0.875,10.56 0.39502,12.232c-0.19101,0.669 -0.19,1.12199 0.00497,1.31699c0.50201,0.50201 0.328,1.637 -0.30298,1.97501c-0.41602,0.222 -0.599,0.627 -0.599,1.323c0,0.752 0.14999,1.043 0.599,1.16c0.435,0.11401 0.599,0.409 0.599,1.07301c0,0.61 -0.20001,1.02399 -0.599,1.238c-0.72302,0.387 -0.84402,1.573 -0.13202,1.3c0.30902,-0.119 0.522,0.028 0.62701,0.431c0.08798,0.33501 0.41699,0.677 0.73099,0.76c0.56601,0.147 0.832,1.643 0.375,2.1c-0.371,0.371 -1.00198,-0.46899 -1.00198,-1.332c0,-0.604 -0.15701,-0.876 -0.52402,-0.908c-0.28799,-0.025 -0.66498,-0.061 -0.83798,-0.08c-0.172,-0.019 -0.69601,-0.336 -1.164,-0.70399c-0.46802,-0.368 -1.07501,-0.66901 -1.35001,-0.66901c-0.27499,0 -0.95801,-0.47199 -1.517,-1.048c-0.55899,-0.577 -1.27402,-1.049 -1.58801,-1.049c-0.315,0 -0.97299,-0.33701 -1.46298,-0.749c-0.48901,-0.412 -1.08701,-0.749 -1.328,-0.749c-0.75299,0 -2.91501,-1.218 -4.01001,-2.259c-0.96701,-0.919 -1.52399,-1.197 -4.495,-2.241c-1.13,-0.397 -3.46399,-1.42001 -4.19501,-1.839c-0.61899,-0.355 -1.46698,-0.73 -2.647,-1.172c-1.23099,-0.46 -2.44598,-2.287 -2.44598,-3.676c0,-1.236 2.62601,-4.094 3.76099,-4.094c0.80499,0 4.19299,-3.53699 4.384,-4.576c0.375,-2.046 -0.79401,-7.854 -1.77798,-8.834c-0.371,-0.37 -0.67401,-0.916 -0.67401,-1.214c0,-0.298 -0.198,-0.804 -0.44,-1.124c-0.242,-0.32 -0.444,-1.112 -0.45001,-1.761c-0.00598,-0.755 -0.224,-1.408 -0.60599,-1.815c-0.54001,-0.574 -0.60098,-1.077 -0.62799,-5.219l-0.03,-4.583l0.97,-1.002c1.30698,-1.349 4.56299,-1.585 11.13699,-0.809m-44.41,66.443c0.20499,0.247 0.66,0.453 1.01001,0.459c1.55099,0.023 1.87799,0.835 2.34399,5.833c0.16901,1.812 0.47598,3.498 0.68298,3.745c0.207,0.24699 0.461,0.80399 0.56302,1.238c0.21899,0.924 5.08701,5.653 5.819,5.653c0.56299,0 2.76401,2.04399 2.76401,2.56599c0,0.19101 0.30798,0.804 0.68399,1.36301c1.5,2.228 2.10901,5.427 1.133,5.94899c-0.35001,0.18701 -0.61801,0.69701 -0.67401,1.28401c-0.08099,0.834 -0.22299,0.98799 -0.99298,1.073c-0.49402,0.05499 -1.12302,0.302 -1.39801,0.548c-0.383,0.34399 -0.64099,0.37299 -1.104,0.125c-0.33301,-0.17801 -1.11899,-0.32301 -1.74799,-0.32301c-4.34601,0 -10.30099,-3.717 -8.349,-5.211c0.32999,-0.252 0.436,-1.088 0.44098,-3.478c0.00302,-1.731 0.01501,-3.71201 0.02502,-4.40399c0.01599,-0.97 -0.11902,-1.33101 -0.59,-1.58301c-0.47302,-0.253 -0.61002,-0.625 -0.61002,-1.654c0,-0.73 -0.189,-1.905 -0.41901,-2.611c-0.39899,-1.225 -0.853,-9.82 -0.56198,-10.647c0.17599,-0.5 0.526,-0.473 0.98099,0.075m78.70599,26.44199c0.103,0.28801 0.38901,0.76001 0.63699,1.048c0.24701,0.289 0.31003,0.52499 0.13901,0.52499c-0.17099,0 -0.38998,0.30101 -0.48599,0.66901c-0.27399,1.047 -0.81601,0.239 -0.92401,-1.377c-0.09198,-1.37601 0.276,-1.877 0.634,-0.86501m-72.06299,23.34201c0.30099,0.27299 0.548,0.795 0.548,1.16199c0,0.36601 0.18698,0.82101 0.41599,1.011c0.51001,0.423 0.78601,1.70201 0.44101,2.04701c-0.13901,0.138 -0.11801,0.71799 0.04498,1.28899c0.37402,1.30301 0.04901,4.664 -0.49399,5.11501c-0.224,0.187 -0.40799,0.633 -0.40799,0.993c0,2.99701 -4.98199,2.55901 -6.716,-0.59099c-0.17801,-0.32201 -0.81,-1.194 -1.405,-1.93701c-1.59,-1.98599 -2.29901,-3.55899 -2.53201,-5.62399l-0.20801,-1.838l1.16101,-0.49901c0.638,-0.274 1.39499,-0.61699 1.681,-0.76199c0.28601,-0.144 1.297,-0.265 2.24701,-0.267c0.94998,-0.00301 1.92899,-0.136 2.17599,-0.295c0.711,-0.459 2.44699,-0.34801 3.048,0.196m40.09799,59.642c-1.556,0.57199 -1.83899,1.825 -1.02798,4.556c0.58798,1.979 0.85199,1.83 0.41098,-0.231c-0.479,-2.229 0.255,-3.711 1.966,-3.97099c0.659,-0.10001 0.90601,-0.201 0.54901,-0.22501c-0.358,-0.02299 -0.83002,-0.099 -1.04901,-0.168c-0.22,-0.07001 -0.60098,-0.052 -0.849,0.039m-139.713,42.09799c-1.395,1.479 -2.845,4.569 -5.103,10.87302c-2.62201,7.323 -3.034,10.28098 -2.47,17.72299c0.295,3.89499 0.12399,4.668 -1.19301,5.37698c-1.41599,0.76202 -1.29799,1.01901 0.464,1.01901c1.451,0 1.49901,-0.02701 1.49901,-0.862c0,-0.474 0.2,-1.02802 0.44499,-1.23199c0.298,-0.24701 0.358,-0.526 0.18201,-0.841c-0.25801,-0.461 -0.00801,-1.159 0.772,-2.15799c0.19299,-0.24701 0.50699,-1.586 0.696,-2.97501c0.571,-4.18402 2.20399,-10.04199 4.16699,-14.95001c1.105,-2.76401 2.211,-7.84198 2.216,-10.17801c0.006,-2.82098 -0.349,-3.202 -1.675,-1.79599m60.757,24.703c-0.526,0.526 -0.552,0.84 -0.134,1.62c0.448,0.83701 2.27299,0.80801 2.543,-0.04099c0.38,-1.198 -1.535,-2.453 -2.409,-1.57901" id="svg_7"/>
           <path fill-rule="evenodd" fill="#a7819b" d="m156.554,1.968c-1.31801,1.066 -3.20599,2.571 -4.194,3.343c-4.31599,3.369 -5.98399,5.328 -6.83099,8.022c-0.26001,0.824 -1.233,3.712 -2.164,6.418c-2.63301,7.655 -2.729,9.765 -0.703,15.36c2.33499,6.445 2.35699,6.534 2.351,9.361c-0.00301,1.495 -0.201,4.067 -0.44,5.715c-0.239,1.648 -0.438,5.114 -0.444,7.703c-0.009,4.781 -0.75299,8.905 -2.571,14.259c-0.98199,2.894 -0.912,7.646 0.162,10.847c0.636,1.89799 1.052,3.896 1.24699,5.993c0.16101,1.73 0.655,4.562 1.097,6.292c2.04401,7.99001 0.24301,16.709 -4.11099,19.905c-3.71901,2.729 -5.575,9.223 -4.535,15.866c1.839,11.74699 1.948,12.274 3.006,14.50999c0.483,1.022 1.30701,3.172 1.83,4.77701c4.673,14.327 7.841,20.082 13.707,24.89999c8.72701,7.168 10.054,9.142 11.61,17.27c0.41,2.14299 0.942,4.713 1.183,5.71199c0.24001,1 0.437,2.14601 0.437,2.54701c0,0.40199 0.19501,1.80899 0.43401,3.127c1.056,5.82399 1.64101,9.49699 1.957,12.28499c0.51399,4.52901 0.91299,7.33 1.282,8.98901c0.76801,3.46199 0.476,6.342 -0.92101,9.073c-0.69899,1.364 -1.53,3.14 -1.847,3.94499c-4.82999,12.25301 -17.49599,28.83699 -27.715,36.287c-3.758,2.73999 -21.83099,10.63699 -30.56799,13.35599c-5.802,1.806 -9.983,4.35303 -11.686,7.117c-0.329,0.53601 -1.018,1.504 -1.529,2.15201c-1.803,2.28201 -1.833,2.526 -0.32,2.526c1.198,0 1.393,-0.108 2.143,-1.19c1.561,-2.25198 6.925,-6.03799 10.863,-7.66599c1.11501,-0.461 3.605,-1.55002 5.533,-2.41901c1.928,-0.86902 6.984,-3.01801 11.236,-4.776c12.425,-5.13602 14.203,-6.147 20.33601,-11.55701c6.814,-6.01099 15.88399,-17.37599 20.31898,-25.461c2.5,-4.55701 5.57701,-9.403 6.923,-10.901c2.34601,-2.61099 2.67801,-5.03101 1.66101,-12.09599c-0.32301,-2.246 -0.80101,-6.42201 -1.06201,-9.28c-0.504,-5.51001 -0.64299,-6.39801 -2.334,-14.87801c-0.591,-2.967 -1.5,-7.75301 -2.01999,-10.63699c-1.43401,-7.95801 -2.007,-8.88 -6.71501,-10.811c-3.358,-1.37601 -3.593,-1.513 -7.20599,-4.196c-4.56,-3.386 -9.20399,-11.543 -11.94501,-20.98401c-1.09099,-3.756 -1.948,-6.19499 -2.715,-7.728c-0.978,-1.955 -1.593,-4.028 -1.96201,-6.618c-1.86299,-13.084 -0.98199,-16.064 5.93001,-20.057c3.703,-2.138 4.194,-3.62 3.659,-11.047c-0.424,-5.889 -0.912,-8.916 -1.966,-12.192c-0.87399,-2.716 -1.46899,-12.3 -1.01999,-16.439c0.12799,-1.176 0.453,-4.228 0.72299,-6.782c0.27,-2.554 1.00801,-7.07101 1.64101,-10.037c0.633,-2.967 1.312,-6.674 1.50999,-8.24c0.198,-1.566 0.616,-3.964 0.93001,-5.33c0.98099,-4.269 0.603,-6.693 -1.541,-9.869c-4.09801,-6.072 -4.63701,-10.225 -2.032,-15.651c0.67499,-1.407 1.54399,-3.736 1.92999,-5.174c0.877,-3.273 1.645,-4.495 4.217,-6.711c2.83301,-2.441 5.87601,-5.603 7.048,-7.324c0.604,-0.887 1.535,-1.749 2.39999,-2.225c2.17401,-1.194 2.054,-1.35 -1.021,-1.334l-2.78999,0.014l-2.397,1.939m184.166,-0.983c0.60199,0.529 1.461,1.753 1.91,2.72c0.948,2.04 2.47699,3.67 5.302,5.652c2.61301,1.835 3.65298,3.319 6.034,8.609c2.50198,5.558 2.582,6.063 2.44501,15.442c-0.11102,7.627 -0.25101,9.091 -1.19702,12.435c-1.42099,5.028 -1.58698,7.497 -1.80698,26.816c-0.121,10.653 -0.155,11.186 -0.85602,13.633c-1.61398,5.631 -2.927,8.535 -5.01099,11.086c-1.414,1.732 -1.49301,1.894 -3.133,6.48c-0.759,2.12099 -1.707,4.734 -2.10703,5.805c-0.39999,1.071 -1.27899,3.768 -1.952,5.992c-0.67398,2.225 -1.66599,5.002 -2.20599,6.171c-2.35599,5.104 -2.052,9.47201 0.82901,11.91601c4.95599,4.20399 5.59799,5.2 5.59799,8.692c0,5.01399 -3.737,13.37099 -5.979,13.37099c-0.707,0 -2.336,2.73601 -2.71298,4.55501c-1.242,5.989 -3.98901,8.629 -8.98203,8.629c-2.13998,0 -3.50098,-0.924 -3.53,-2.397c-0.005,-0.24699 -0.228,-2.75 -0.495,-5.562c-0.69598,-7.317 -0.32498,-9.42101 2.14301,-12.153c1.91599,-2.121 3.71799,-2.577 5.77399,-1.463c2.13501,1.157 2.40802,1.22701 3.237,0.82899c0.974,-0.468 1.50403,-2.293 0.99301,-3.41499c-0.18399,-0.405 -0.33499,-0.94 -0.33499,-1.188c0,-1.026 -2.43402,-4.052 -3.69702,-4.59599c-3.52899,-1.522 -4.94098,-5.07301 -5.547,-13.95c-0.552,-8.083 -3.14398,-12.739 -5.58798,-10.038c-0.298,0.33 -0.70102,0.599 -0.896,0.599c-0.564,0 -5.47,5.397 -6.87701,7.565c-1.388,2.14 -2.621,2.621 -6.74298,2.636c-6.68701,0.02299 -9.953,1.943 -7.64401,4.494c1.452,1.605 1.293,8.101 -0.23999,9.795c-0.30701,0.34 -0.522,1.05899 -0.52402,1.75099c-0.00299,0.99301 -0.18799,1.338 -1.19598,2.224c-0.853,0.75 -1.19302,1.287 -1.19501,1.88701c-0.00299,0.849 -1.26401,2.27899 -2.026,2.29799c-0.25299,0.007 -0.37399,0.55 -0.37399,1.686c0,1.424 -0.09,1.69901 -0.599,1.832c-0.68701,0.18001 -0.82501,1.286 -0.16101,1.286c0.242,0 0.57999,0.26201 0.75101,0.58301c0.237,0.44299 0.69199,0.606 1.884,0.674c1.53699,0.089 1.57401,0.11301 1.72,1.116c0.177,1.211 0.72598,1.507 1.189,0.64101c0.215,-0.401 0.629,-0.617 1.18201,-0.617c0.53998,0 1.03,-0.24699 1.33798,-0.675l0.48599,-0.674l0.48602,0.674c0.30798,0.42801 0.798,0.675 1.33798,0.675c0.54501,0 0.96701,0.215 1.172,0.599c0.19702,0.36801 0.63501,0.603 1.134,0.60901c1.173,0.013 2.46201,1.25099 2.46201,2.362c0,0.59599 0.203,1.01199 0.599,1.224c0.543,0.28999 0.599,0.627 0.599,3.595c0,2.968 -0.056,3.30499 -0.599,3.59599c-0.46799,0.25 -0.60001,0.629 -0.60199,1.733c-0.00302,1.27 -0.12399,1.519 -1.19601,2.461c-1.07199,0.94301 -1.19299,1.192 -1.19501,2.46201c-0.00299,1.104 -0.13397,1.48199 -0.60199,1.733c-0.47501,0.254 -0.60001,0.62799 -0.60001,1.79799c0,1.17001 -0.12399,1.54401 -0.599,1.798c-0.466,0.24901 -0.599,0.627 -0.599,1.70399c0,1.24301 -0.13,1.505 -1.27399,2.56801l-1.27301,1.18401l0.67401,0.45499c0.95801,0.645 1.01498,4.37201 0.07498,4.875c-0.61798,0.33101 -0.95499,6.63701 -0.37399,6.99501c0.405,0.24899 -0.448,15.52499 -0.909,16.26999c-0.10901,0.17801 -0.41699,1.58801 -0.68399,3.136c-0.26602,1.54701 -0.61301,3.554 -0.771,4.461c-0.28601,1.647 -1.431,3.70601 -2.23102,4.013c-0.28598,0.10901 -0.42398,0.64 -0.42398,1.62401c0,1.08 -0.15601,1.60201 -0.599,2.00301c-0.423,0.383 -0.60001,0.92299 -0.60001,1.834c0,0.98399 -0.142,1.36699 -0.599,1.612c-0.39902,0.213 -0.599,0.627 -0.599,1.237c0,0.66399 0.16498,0.959 0.599,1.073c0.32999,0.086 0.599,0.338 0.599,0.56099c0,0.222 -0.26901,0.548 -0.599,0.724c-0.33002,0.177 -0.599,0.50301 -0.599,0.72501c0,0.222 0.26898,0.474 0.599,0.561c0.50699,0.132 0.599,0.40799 0.599,1.797c0,1.38899 0.09198,1.66499 0.60001,1.798c0.40997,0.10699 0.599,0.409 0.599,0.957c0,0.99899 1.48898,2.552 2.44897,2.552c0.75803,0.00099 2.79202,1.948 3.21301,3.07799c1.80899,4.85301 -1.508,17.67799 -7.85999,30.38899c-1.548,3.099 -3.53302,7.18402 -4.41101,9.08002c-0.87799,1.89499 -2.478,4.996 -3.556,6.89099c-1.75702,3.08801 -2.702,5.099 -2.715,5.78c-0.00201,0.13 1.99799,0.21899 4.44498,0.19699l4.45001,-0.03998l0.40399,-1.03c0.23602,-0.60202 0.56,-0.97101 0.77902,-0.88699c0.45999,0.17697 0.81,-0.81702 0.56299,-1.59802c-0.10101,-0.31598 -0.03699,-0.664 0.14099,-0.77399c0.17902,-0.11002 0.24002,-0.465 0.138,-0.789c-0.103,-0.32401 0.01401,-0.896 0.26102,-1.27301c0.24698,-0.37698 0.53998,-1.34698 0.65198,-2.15799c0.186,-1.35001 1.45801,-5.55899 1.89401,-6.267c0.10199,-0.16501 0.20999,-0.46301 0.23999,-0.66299c0.03,-0.20001 0.34702,-0.77301 0.703,-1.27402c0.35602,-0.5 0.57001,-0.909 0.47501,-0.909c-0.095,0 0.23102,-0.71701 0.72501,-1.59201c1.06799,-1.89099 2.082,-4.69299 2.289,-6.32397c0.19901,-1.56601 1.66501,-6.12302 3.33301,-10.362c2.31097,-5.86902 4.78,-15.15102 4.37299,-16.43301c-0.12299,-0.388 -0.09399,-0.407 0.134,-0.08701c0.246,0.345 0.314,0.345 0.43399,0c0.24301,-0.698 1.39301,0.59201 1.74902,1.961c0.17499,0.67401 0.43799,1.63101 0.58499,2.125c2.13199,7.198 2.65799,23.50101 0.88098,27.33801c-0.32397,0.698 -0.58798,1.60001 -0.58798,2.004c0,0.40399 -0.14099,0.82199 -0.314,0.92899c-0.194,0.12003 -0.28101,1.35001 -0.22702,3.23801c0.07501,2.66101 -0.08398,4.27499 -1.10199,11.17401c-0.052,0.35098 -0.32599,0.992 -0.60901,1.42398c-0.28299,0.431 -0.40399,0.78403 -0.26999,0.78403c0.13501,0 0.08301,0.16199 -0.11499,0.35999c-0.88602,0.88501 -0.40002,1.138 2.18698,1.138c2.832,0 2.80099,0.01999 1.90399,-1.19299c-0.73199,-0.99002 -0.642,-5.021 0.20102,-9.03101c0.23199,-1.10001 0.55899,-3.69501 0.72699,-5.76801c0.168,-2.07199 0.505,-4.74899 0.74899,-5.948c2.237,-11.01901 -0.94699,-35.379 -6.33698,-48.47099c-3.69501,-8.97701 1.60999,-8.91301 13.64099,0.16499c10.832,8.173 12.58099,9.05701 19.271,9.739c4.07999,0.416 9.832,1.543 15.38699,3.01401c10.97601,2.907 13.69601,3.53799 16.64001,3.86099c1.72501,0.18901 4.888,0.68001 7.03101,1.09c5.13199,0.98201 19.61298,3.412 20.29898,3.40601c0.12399,-0.00099 0.22501,-0.935 0.22501,-2.075l0,-2.07201l-1.573,-0.33899c-0.86499,-0.186 -2.65201,-0.405 -3.97,-0.487c-1.31799,-0.082 -3.13901,-0.27301 -4.04501,-0.42401c-8.056,-1.34099 -14.146,-2.433 -20.82397,-3.73599c-1.15402,-0.22501 -2.74402,-0.48601 -3.535,-0.57901c-1.77802,-0.20999 -4.71802,-1.368 -7.39801,-2.91299c-1.11801,-0.645 -3.009,-1.505 -4.202,-1.91c-1.194,-0.40599 -2.37302,-0.907 -2.621,-1.112c-0.59399,-0.493 -7.29199,-0.53 -7.89099,-0.043c-0.95102,0.774 -4.13602,1.38501 -6.508,1.24701c-3.82901,-0.22101 -7.21802,-2.12601 -13.22,-7.43001c-1.68701,-1.491 -5.01602,-4.009 -7.397,-5.59599c-2.38101,-1.586 -5.28302,-3.767 -6.44901,-4.84601l-2.11902,-1.963l0.20502,-4.66c0.11301,-2.56299 0.32001,-5.064 0.45999,-5.558c0.13901,-0.495 0.483,-1.70599 0.76401,-2.69299c0.28101,-0.98601 0.573,-2.94101 0.64899,-4.34401c0.30902,-5.709 2.52402,-9.293 5.741,-9.293c3.69,0 5.06003,-0.75299 9.32602,-5.12399c2.54001,-2.603 3.358,-3.26201 4.24399,-3.423c1.20999,-0.22 2.34799,0.026 2.34799,0.507c0,0.17 0.47202,0.78101 1.04901,1.358c0.828,0.82899 1.048,1.287 1.048,2.181c0,0.64 0.19501,1.29399 0.45001,1.505c0.24698,0.20499 0.44897,0.62099 0.44897,0.92499c0,0.30301 0.405,1.013 0.89902,1.576c0.495,0.563 0.89899,1.187 0.89899,1.386c0,0.2 0.27002,0.70599 0.599,1.125c0.33002,0.41901 0.60001,0.98199 0.60001,1.252c0,0.27 0.60602,1.151 1.34702,1.95801l1.34698,1.467l1.18701,-1.285c1.03998,-1.12599 1.30798,-1.267 2.173,-1.13499c1.24698,0.189 2.03497,-0.21501 2.03497,-1.043c0,-0.35501 0.28,-0.942 0.62201,-1.306c0.68802,-0.733 0.85001,-5.27501 0.43301,-12.175c-0.186,-3.07901 -0.16202,-3.26401 0.57401,-4.521c0.42297,-0.72101 0.76999,-1.703 0.771,-2.18301c0.00198,-0.661 0.452,-1.338 1.858,-2.793c1.84097,-1.90599 1.85098,-1.92499 1.19598,-2.35899c-0.56601,-0.37601 -0.66,-0.711 -0.66,-2.375l0,-1.936l2.397,-2.34599c1.75702,-1.71901 2.397,-2.55 2.397,-3.11c0,-0.46899 0.24301,-0.894 0.62701,-1.10001c0.97299,-0.51999 0.76797,-8.39999 -0.25201,-9.696c-0.40201,-0.511 -0.67401,-1.272 -0.67401,-1.88499c0,-0.565 -0.15997,-1.32201 -0.35599,-1.68201c-0.19601,-0.36 -0.44,-2.50899 -0.54199,-4.776c-0.224,-4.959 -0.59201,-5.76599 -2.63,-5.76599c-0.668,0 -1.31702,-0.101 -1.44,-0.22501c-0.12399,-0.123 -0.48499,-0.22499 -0.80301,-0.22499c-0.31699,0 -0.91901,-0.26901 -1.33798,-0.599c-0.41901,-0.32901 -1.005,-0.59901 -1.30099,-0.59901c-0.29602,0 -0.62402,-0.26999 -0.729,-0.599c-0.104,-0.32999 -0.35901,-0.59999 -0.56601,-0.59999c-0.207,0 -0.66901,-0.649 -1.02802,-1.444c-0.72198,-1.597 -0.80099,-1.978 -0.353,-1.702c0.16901,0.105 0.29901,-0.138 0.29901,-0.556c0,-0.408 -0.16501,-0.797 -0.36801,-0.865c-0.26999,-0.09 -0.23099,-0.331 0.14902,-0.911c0.284,-0.434 0.48599,-1.03 0.44998,-1.325c-0.073,-0.592 0.11301,-1.756 0.99802,-6.23c0.94998,-4.81 4.17899,-10.78799 8.177,-15.14c2.80301,-3.053 4.05099,-4.762 4.341,-5.949c0.146,-0.596 0.49698,-2.027 0.78,-3.181c1.638,-6.666 1.76801,-7.872 2.758,-25.615c0.078,-1.399 0.26199,-2.619 0.41,-2.71001c0.147,-0.091 0.423,-1.205 0.61099,-2.475c0.189,-1.269 0.435,-2.309 0.547,-2.309c0.112,0 0.38199,-0.495 0.60101,-1.101c0.23999,-0.664 1.23099,-1.886 2.48898,-3.072l2.09,-1.969l1.63602,0.104c1.15201,0.073 1.785,-0.03 2.14099,-0.347c0.76901,-0.686 1.71899,-0.718 2.423,-0.082c0.62601,0.566 0.64401,0.565 1.306,-0.043c0.59399,-0.545 1.077,-0.619 4.20999,-0.642c4.33401,-0.032 4.10101,0.123 4.10101,-2.725c0,-2.241 0.03,-2.343 0.63,-2.186c0.49698,0.129 0.60699,0.045 0.521,-0.403c-0.064,-0.337 -0.41101,-0.609 -0.854,-0.671c-1.327,-0.184 -1.41,-0.463 -1.63901,-5.505c-0.20999,-4.649 -0.83301,-7.393 -1.548,-6.826c-0.104,0.083 -0.40601,-0.538 -0.672,-1.379c-0.26498,-0.842 -0.66098,-1.743 -0.87799,-2.004c-0.664,-0.795 -0.37799,-13.441 0.32098,-14.212c0.71002,-0.784 0.77701,-7.677 0.08502,-8.666c-0.741,-1.057 -1.267,-3.537 -1.04001,-4.9c0.04199,-0.247 0.05399,-1.022 0.02798,-1.723l-0.047,-1.273l-5.66898,0c-6.22202,0 -6.76102,0.075 -6.267,0.867c0.245,0.391 0.16998,0.827 -0.31302,1.827c-0.349,0.723 -0.63501,1.685 -0.63501,2.139c0,0.453 -0.13498,0.908 -0.29999,1.01c-0.164,0.102 -0.29901,0.514 -0.29901,0.916c0,0.581 -0.155,0.732 -0.74899,0.732c-0.41199,0 -0.74899,-0.129 -0.74899,-0.286c0,-0.332 -4.39099,-2.48 -5.16901,-2.528c-0.603,-0.038 -3.70099,-3.229 -3.97598,-4.097c-0.17603,-0.554 -0.52701,-0.579 -7.879,-0.569l-7.69601,0.011l1.095,0.963m-44.72101,45.353c-0.42999,0.074 -1.21799,0.586 -1.75198,1.137l-0.97,1.002l0.03,4.583c0.02701,4.142 0.08798,4.645 0.62799,5.219c0.38199,0.407 0.60001,1.06 0.60599,1.815c0.00601,0.649 0.20801,1.441 0.45001,1.761c0.242,0.32 0.44,0.826 0.44,1.124c0,0.298 0.30301,0.844 0.67401,1.214c0.98398,0.98 2.15298,6.788 1.77798,8.834c-0.19101,1.039 -3.57901,4.576 -4.384,4.576c-1.13498,0 -3.76099,2.858 -3.76099,4.094c0,1.389 1.215,3.216 2.44598,3.676c1.18002,0.442 2.02802,0.817 2.647,1.172c0.73102,0.419 3.065,1.442 4.19501,1.839c2.97101,1.044 3.52798,1.322 4.495,2.241c1.095,1.041 3.25702,2.259 4.01001,2.259c0.241,0 0.83899,0.337 1.328,0.749c0.48999,0.41199 1.14798,0.749 1.46298,0.749c0.314,0 1.02902,0.47199 1.58801,1.049c0.55899,0.576 1.242,1.048 1.517,1.048c0.27499,0 0.88199,0.301 1.35001,0.66901c0.46799,0.368 0.992,0.685 1.164,0.70399c0.173,0.019 0.54999,0.055 0.83798,0.08c0.367,0.032 0.52402,0.304 0.52402,0.908c0,0.86301 0.63098,1.703 1.00198,1.332c0.457,-0.457 0.19101,-1.953 -0.375,-2.1c-0.314,-0.083 -0.64301,-0.425 -0.73099,-0.76c-0.10501,-0.403 -0.31799,-0.55 -0.62701,-0.431c-0.71201,0.273 -0.591,-0.91299 0.13202,-1.3c0.39899,-0.214 0.599,-0.628 0.599,-1.238c0,-0.664 -0.164,-0.959 -0.599,-1.07301c-0.44901,-0.117 -0.599,-0.408 -0.599,-1.16c0,-0.696 0.18298,-1.101 0.599,-1.323c0.63098,-0.33801 0.80499,-1.473 0.30298,-1.97501c-0.19498,-0.195 -0.19598,-0.64799 -0.00497,-1.31699c0.47998,-1.672 0.159,-11.618 -0.39502,-12.232c-1.06601,-1.183 -1.952,-6.05 -1.10098,-6.05c0.164,0 0.30099,-0.707 0.302,-1.573c0.00198,-0.865 0.19498,-2.203 0.42899,-2.973c0.505,-1.664 0.63101,-5.663 0.224,-7.139c-0.974,-3.54 -5.952,-9.888 -7.754,-9.888c-0.314,0 -0.73801,-0.165 -0.94101,-0.368c-0.60898,-0.61 -9.55099,-1.32 -11.767,-0.934m95.237,14.182c-1.04898,1.101 -1.16498,3.198 -0.22501,4.049c0.33002,0.299 0.599,0.857 0.599,1.241c0,0.512 0.27402,0.813 1.02002,1.125c0.58798,0.246 1.11099,0.723 1.23499,1.12801c0.39301,1.278 0.76001,1.52599 1.40201,0.945c0.85901,-0.777 1.172,-0.062 1.073,2.449l-0.082,2.094l1.491,0.213c0.82101,0.118 1.539,0.355 1.59702,0.528c0.05798,0.173 0.228,0.315 0.379,0.315c0.45099,0 0.353,-10.994 -0.10001,-11.16c-0.56,-0.206 -1.12299,0.068 -1.12299,0.548c0,0.233 -0.13501,0.424 -0.30002,0.424c-0.16501,0 -0.29898,-0.383 -0.29898,-0.852c0,-0.982 -0.80902,-1.844 -1.73203,-1.844c-0.34998,0 -0.75998,-0.223 -0.91199,-0.495c-0.207,-0.369 -0.517,-0.446 -1.22299,-0.305c-0.80801,0.162 -0.99503,0.081 -1.284,-0.554c-0.42102,-0.924 -0.5,-0.916 -1.51602,0.151m7.466,18.481c-0.10999,0.11 -0.19998,0.979 -0.19998,1.93c0,0.952 -0.13501,1.814 -0.30002,1.915c-0.46701,0.289 -0.34399,3.512 0.16,4.178c0.242,0.319 0.439,0.876 0.439,1.236c0,0.699 0.673,1.45399 1.00201,1.126c0.54099,-0.542 0.207,-10.585 -0.35202,-10.585c-0.302,0 -0.63998,0.09 -0.74899,0.2m-138.70898,34.033c-0.29102,0.827 0.16299,9.422 0.56198,10.647c0.23001,0.706 0.41901,1.881 0.41901,2.611c0,1.029 0.13699,1.401 0.61002,1.654c0.47098,0.252 0.60599,0.61301 0.59,1.58301c-0.01001,0.69199 -0.022,2.67299 -0.02502,4.40399c-0.00497,2.39 -0.11099,3.226 -0.44098,3.478c-1.952,1.494 4.00299,5.211 8.349,5.211c0.629,0 1.41498,0.145 1.74799,0.32301c0.46301,0.24799 0.72101,0.21899 1.104,-0.125c0.27499,-0.246 0.90399,-0.49301 1.39801,-0.548c0.76999,-0.08501 0.91199,-0.239 0.99298,-1.073c0.056,-0.58701 0.32401,-1.097 0.67401,-1.28401c0.97601,-0.52199 0.367,-3.72099 -1.133,-5.94899c-0.37601,-0.55901 -0.68399,-1.172 -0.68399,-1.36301c0,-0.522 -2.20102,-2.56599 -2.76401,-2.56599c-0.73199,0 -5.60001,-4.729 -5.819,-5.653c-0.10202,-0.43401 -0.35602,-0.991 -0.56302,-1.238c-0.207,-0.247 -0.51398,-1.93301 -0.68298,-3.745c-0.466,-4.998 -0.793,-5.81 -2.34399,-5.833c-0.35001,-0.006 -0.80502,-0.212 -1.01001,-0.459c-0.45499,-0.548 -0.80499,-0.575 -0.98099,-0.075m4.57599,49.66301c-0.24701,0.159 -1.22601,0.29199 -2.17599,0.295c-0.95001,0.002 -1.961,0.123 -2.24701,0.267c-0.28601,0.145 -1.043,0.48799 -1.681,0.76199l-1.16101,0.49901l0.20801,1.838c0.233,2.065 0.94202,3.638 2.53201,5.62399c0.595,0.74301 1.22699,1.61501 1.405,1.93701c1.73401,3.14999 6.716,3.588 6.716,0.59099c0,-0.36 0.18399,-0.806 0.40799,-0.993c0.543,-0.451 0.86801,-3.812 0.49399,-5.11501c-0.16299,-0.571 -0.18399,-1.15099 -0.04498,-1.28899c0.345,-0.345 0.069,-1.62401 -0.44101,-2.04701c-0.229,-0.18999 -0.41599,-0.64499 -0.41599,-1.011c0,-1.34999 -2.27802,-2.20999 -3.59601,-1.35799m32.659,136.364c0,0.45898 0.22501,0.564 1.19901,0.564c1.03699,0 1.87399,-0.79999 0.974,-0.931c-1.694,-0.24799 -2.173,-0.16699 -2.173,0.367" id="svg_6"/>
           <path fill-rule="evenodd" fill="#47445d" d="m314.66699,231.97c-0.72598,0.72501 -0.263,5.57899 1.62201,17.019c1.70401,10.34502 2.39801,24.82399 1.629,34.007c-0.35101,4.186 -1.63199,12.798 -1.991,13.37799c-0.08701,0.14102 -0.26501,0.931 -0.39499,1.754l-0.237,1.49701l8.64499,0l8.64401,0l0,-1.138c0,-0.62601 0.16199,-1.29999 0.35999,-1.49799c0.27899,-0.28 0.24399,-0.36002 -0.15799,-0.36002c-0.46802,0 -0.47601,-0.078 -0.08902,-0.828c0.23602,-0.45499 0.52499,-1.46799 0.642,-2.25101c0.117,-0.78198 0.33301,-1.496 0.478,-1.586c0.14603,-0.09 0.26501,-0.53998 0.26501,-0.99899c0,-0.45898 0.26999,-1.07901 0.60001,-1.37698c0.32898,-0.298 0.599,-0.78601 0.599,-1.08502c0,-0.298 0.21399,-1.172 0.47501,-1.94199c0.36499,-1.07501 0.39099,-1.452 0.11298,-1.62399c-0.22699,-0.14001 -0.29898,-0.60001 -0.19299,-1.23203c0.306,-1.823 1.12601,-5.17899 1.60001,-6.55099c0.25699,-0.742 0.58398,-1.75299 0.72699,-2.24799l0.26102,-0.89902l-0.586,0.75l-0.586,0.74902l0.284,-1.01501c0.15601,-0.55899 0.48999,-1.24399 0.742,-1.522c0.25198,-0.27899 0.45898,-0.72198 0.45898,-0.98499c0,-0.26202 0.33701,-0.87802 0.74899,-1.36801c0.522,-0.62 0.74902,-1.24799 0.74902,-2.073c0,-0.819 0.19199,-1.358 0.62299,-1.74799c0.44299,-0.401 0.577,-0.79401 0.46399,-1.358c-0.246,-1.23203 0.35901,-9.60001 0.76602,-10.58601c0.28101,-0.681 0.28198,-0.90599 0.004,-0.99899c-0.59799,-0.19901 -0.405,-0.95401 0.44699,-1.744c0.625,-0.57899 0.67599,-0.70399 0.22501,-0.55301c-0.32599,0.108 -0.194,-0.07599 0.30099,-0.422c0.48502,-0.338 1.04901,-0.93399 1.254,-1.325c0.31299,-0.59799 0.74899,-0.767 2.763,-1.076c2.789,-0.427 5.74301,-0.17299 10.082,0.86501c0.82401,0.19701 1.79401,0.39799 2.155,0.446c0.36099,0.048 0.77701,0.162 0.92401,0.25301c0.147,0.09099 0.728,0.245 1.29099,0.34399c0.56201,0.09801 1.293,0.353 1.62201,0.565c0.32999,0.21201 0.96399,0.47499 1.41,0.58499c0.44598,0.11 1.18799,0.35501 1.64798,0.54401c0.46103,0.189 1.17102,0.399 1.57901,0.466c0.40799,0.067 0.88,0.23599 1.04901,0.375c0.29401,0.243 3.08701,1.071 4.651,1.37999c0.41199,0.082 1.22098,0.30301 1.798,0.492c0.577,0.189 1.521,0.384 2.09698,0.43201c1.853,0.15599 10.03101,1.564 13.33401,2.29498c1.28,0.28403 4.228,0.75302 5.09299,0.811c0.16501,0.01102 1.20999,-0.009 2.323,-0.04599l2.022,-0.06601l0,-2.30099l0,-2.3l-3.371,-0.17499c-7.035,-0.36601 -26.38199,-3.68401 -32.987,-5.658c-5.715,-1.70801 -15.05798,-3.811 -23.13901,-5.20801c-6.12299,-1.05899 -8.49698,-1.98999 -13.811,-5.41899c-7.87299,-5.078 -10.98199,-6.485 -12.02499,-5.442m26.401,25.134c-0.13498,0.13599 -0.181,-0.388 -0.10199,-1.16301l0.14499,-1.409l0.10202,1.16301c0.056,0.63998 -0.01001,1.27399 -0.14502,1.409m-140.319,30.32401c-0.577,0.17899 -1.14799,0.46899 -1.269,0.64301c-0.121,0.17499 -0.222,0.21198 -0.224,0.082c-0.00299,-0.13 -0.174,-0.09601 -0.37999,0.07498c-0.20601,0.17099 -0.71101,0.591 -1.123,0.93399c-0.412,0.34201 -0.54701,0.51801 -0.3,0.39102c0.386,-0.19702 0.392,-0.159 0.041,0.27399c-0.22501,0.27701 -0.528,0.42999 -0.674,0.33899c-0.14601,-0.09 -0.26601,-0.01297 -0.26601,0.17102c0,0.18399 -0.13499,0.25198 -0.299,0.14999c-0.16501,-0.10199 -0.3,0.02499 -0.3,0.28201c0,0.25699 -0.13499,0.46698 -0.3,0.46698c-0.164,0 -0.299,0.255 -0.299,0.56702c0,0.31198 -0.211,0.64798 -0.46901,0.74698c-0.25699,0.099 -0.381,0.32101 -0.27399,0.49402c0.127,0.20499 -0.07901,0.245 -0.59601,0.11499c-0.532,-0.133 -0.90601,-0.05301 -1.14799,0.24802c-0.198,0.246 -1.101,0.69699 -2.00801,1.00198c-0.90599,0.306 -1.97699,0.76102 -2.37999,1.01102l-0.73201,0.45499l1.18201,0.23599c0.64999,0.129 1.349,0.254 1.55499,0.27701c0.81801,0.091 1.30602,1.017 0.983,1.867c-0.16899,0.44598 -0.308,0.935 -0.308,1.08701c0,0.16498 5.88,0.27499 14.60701,0.27298l14.60699,-0.00198l0.674,-1.75101c0.85501,-2.22101 0.85501,-2.22 -0.267,-4.04401c-1.409,-2.28998 -3.332,-3.49698 -6.485,-4.06799c-1.015,-0.18399 -2.302,-0.526 -2.86099,-0.76001c-0.55901,-0.233 -1.81,-0.56598 -2.78101,-0.73898c-0.97,-0.173 -2.77499,-0.509 -4.011,-0.746c-2.612,-0.50201 -2.53,-0.50101 -3.895,-0.077m133.06702,7.43698c-0.436,1.25 -0.228,1.45901 0.26599,0.26602c0.20999,-0.505 0.311,-0.98801 0.22501,-1.07401c-0.08502,-0.08502 -0.306,0.27798 -0.491,0.80798m-220.85701,0.099c-1.433,0.53201 -6.306,3.35703 -7.033,4.077c-0.58701,0.58102 -0.582,0.58401 0.809,0.58401c0.86,0 1.492,-0.15601 1.64,-0.405c0.131,-0.22299 0.574,-0.582 0.983,-0.797c0.408,-0.215 0.991,-0.70599 1.295,-1.09201c0.303,-0.38599 0.683,-0.702 0.843,-0.702c0.16,0 0.605,-0.30301 0.987,-0.67401c0.383,-0.37097 0.949,-0.83499 1.25999,-1.03098c0.721,-0.45602 0.524,-0.44601 -0.784,0.03998m116.44701,2.17102c-0.442,0.11899 -0.51901,0.33499 -0.37401,1.05798c0.10001,0.49899 0.181,1.026 0.181,1.17001c0,0.14398 0.80901,0.26199 1.798,0.26199c1.763,0 1.798,-0.01599 1.793,-0.82401c-0.007,-1.392 -1.569,-2.15799 -3.39799,-1.66599" id="svg_5"/>
           <path fill-rule="evenodd" fill="#76748e" d="m349.21899,12.659c0.64401,0.783 1.21802,1.423 1.27701,1.423c0.21399,0 -1.08701,-1.664 -1.75699,-2.247c-0.37903,-0.329 -0.16302,0.041 0.47998,0.824m2.112,3.446c0.80402,1.82 1.61002,2.967 1.05902,1.508c-0.43903,-1.161 -1.51501,-3.231 -1.681,-3.231c-0.07703,0 0.20297,0.775 0.62198,1.723m2.41901,5.917c0.108,0.66 0.38101,1.671 0.60699,2.248l0.409,1.048l-0.151,-1.231c-0.08398,-0.677 -0.35699,-1.689 -0.60699,-2.247l-0.45499,-1.016l0.19699,1.198m0.92099,5.618c0.189,3.069 0.33401,3.189 0.362,0.3c0.013,-1.359 -0.09399,-2.472 -0.23599,-2.472c-0.14301,0 -0.20001,0.978 -0.12601,2.172m-47.173,196.093c-0.97198,1.483 -0.651,3.37799 1.71103,10.125c4.13098,11.79601 6.53,34.48898 4.63397,43.827c-0.24399,1.19901 -0.58099,3.87601 -0.74899,5.948c-0.168,2.073 -0.495,4.668 -0.72699,5.76801c-1.41299,6.72101 -0.776,10.336 1.79001,10.15799c1.03098,-0.07199 1.20999,-0.18799 1.28098,-0.832c0.04401,-0.41199 0.272,-1.491 0.50601,-2.397c2.86099,-11.09399 3.00699,-31.17999 0.345,-47.34099c-1.88501,-11.44 -2.34799,-16.29399 -1.62201,-17.019c1.043,-1.04401 4.151,0.36299 12.02802,5.44499c5.284,3.40901 6.746,3.93301 13.466,4.83301c5.13699,0.687 15.98499,2.94299 22.48398,4.675c5.36502,1.42999 16.55301,3.832 20.832,4.472c7.26202,1.08699 10.46802,1.48999 13.302,1.67099l3.22101,0.20601l0,-1.345l0,-1.34401l-2.022,-0.34499c-1.11301,-0.19 -4.922,-0.82001 -8.465,-1.40001c-3.543,-0.58 -8.12701,-1.38 -10.18701,-1.77699c-2.06,-0.39801 -5.09399,-0.875 -6.74197,-1.061c-3.83102,-0.43201 -7.04303,-1.12399 -12.28403,-2.64799c-7.64099,-2.222 -14.49698,-3.681 -19.88199,-4.233c-6.55899,-0.67101 -9.164,-1.964 -18.47501,-9.16901c-7.91901,-6.127 -13.05701,-8.338 -14.44501,-6.217m-156.03699,44.259c-2.472,2.508 -5.382,5.32001 -6.467,6.24799c-1.084,0.92801 -2.298,1.97601 -2.696,2.32901l-0.72501,0.642l0.899,-0.638c0.494,-0.35101 1.23599,-0.86398 1.64799,-1.13998c1.44,-0.96402 6.22301,-5.07303 7.63301,-6.55801c0.631,-0.664 4.44099,-5.52701 4.289,-5.474c-0.048,0.017 -2.10901,2.08301 -4.58101,4.591m-16.48,12.61798c-0.75301,0.362 -0.77701,0.40302 -0.15001,0.25201c0.412,-0.099 0.87801,-0.29999 1.03401,-0.44601c0.38899,-0.36298 0.17499,-0.31598 -0.884,0.194m-14.082,5.79901c-2.307,0.94601 -5.00401,2.133 -5.993,2.63699c-0.988,0.504 -2.809,1.276 -4.045,1.71402c-5.738,2.03799 -11.553,5.78 -12.904,8.30499c-0.616,1.14999 3.259,0.785 4.388,-0.41299c1.701,-1.80502 2.225,-2.21201 6.908,-5.35602c3.496,-2.34698 6.498,-3.98798 10.01801,-5.47598c2.66199,-1.125 6.647,-3.17401 6.12199,-3.147c-0.165,0.009 -2.187,0.79001 -4.494,1.73599m103.825,2.84399c-0.16699,0.168 -0.30499,0.207 -0.30499,0.08801c0,-0.12 -0.388,-0.017 -0.86301,0.229c-1.187,0.61301 -1.382,1.67899 -0.752,4.10599l0.52299,2.01901l-0.78499,1.14099c-0.43201,0.62799 -0.925,1.51199 -1.095,1.965l-0.30901,0.82401l3.73801,0c4.08199,0 4.312,-0.117 2.96599,-1.522c-1.02699,-1.07199 -0.556,-1.93701 1.203,-2.21201c2.493,-0.38998 3.35201,-4.103 0.993,-4.29898c-1.239,-0.10202 -1.886,-0.87003 -1.56999,-1.86502c0.20999,-0.66098 0.269,-0.638 -1.871,-0.71899c-0.862,-0.03299 -1.705,0.077 -1.873,0.245" id="svg_4"/>
           <path fill-rule="evenodd" fill="#b4744c" d="m167.19299,1.243c-0.49599,0.684 -0.90099,1.476 -0.90099,1.76c0,0.479 -0.76801,2.487 -1.58601,4.146c-0.19099,0.389 -1.42999,1.658 -2.752,2.82c-2.27899,2.003 -2.64,2.473 -3.875,5.037c-0.69499,1.445 -1.095,3.271 -0.71599,3.271c0.16299,0 0.36699,-0.27 0.45299,-0.599c0.086,-0.33 0.28401,-0.599 0.43901,-0.599c0.155,0 0.19899,-0.135 0.097,-0.3c-0.10201,-0.165 -0.02,-0.3 0.18199,-0.3c0.202,0 0.287,-0.08 0.188,-0.179c-0.207,-0.207 1.002,-1.369 2.77699,-2.667c0.67601,-0.494 1.72,-1.303 2.32101,-1.798c0.59999,-0.494 0.98599,-0.696 0.85699,-0.449c-0.129,0.247 0.058,0.112 0.41699,-0.3c0.358,-0.412 0.54901,-0.547 0.42401,-0.299c-0.15201,0.298 -0.009,0.258 0.42299,-0.122c0.358,-0.314 0.651,-0.484 0.651,-0.379c0,0.106 0.573,-0.145 1.27301,-0.556c0.70099,-0.411 1.849,-1.032 2.55099,-1.379c2.011,-0.993 6.96201,-6.798 6.96201,-8.163c0,-0.103 -2.089,-0.188 -4.64201,-0.188l-4.642,0l-0.901,1.243m-11.79399,36.14c-0.23601,0.382 -0.261,2.445 -0.077,6.477c0.09299,2.042 0.03999,3.789 -0.125,4.097c-0.158,0.296 -0.339,1.064 -0.40201,1.708c-0.062,0.644 -0.24699,1.43 -0.411,1.746c-0.76401,1.475 -1.463,6.716 -0.896,6.716c0.17799,0 0.168,0.152 -0.026,0.385c-0.201,0.242 -0.21701,0.547 -0.043,0.824c0.151,0.242 0.202,0.675 0.112,0.964c-0.09001,0.288 -0.01601,0.524 0.164,0.524c0.59299,0 1.37299,-2.76 1.66299,-5.888c0.089,-0.964 0.22701,-2.458 0.30699,-3.321c0.07901,-0.862 0.65001,-2.885 1.26901,-4.494c1.508,-3.925 1.57399,-6.45 0.22,-8.446c-0.91801,-1.354 -1.46701,-1.758 -1.755,-1.292" id="svg_3"/>
          </g>
         </symbol>
        </defs>
        <g>
         <title>Layer 1</title>
         <use x="290.36616" y="273.58629" transform="matrix(1.59777, 0, 0, 1.54104, -463.977, -412.143)" xlink:href="#svg_12" id="svg_13"/>
         <g id="svg_14"/>
        </g>
       </svg>